<?xml version="1.0" encoding="UTF-8" standalone="no"?>
<svg
   xmlns:dc="http://purl.org/dc/elements/1.1/"
   xmlns:cc="http://creativecommons.org/ns#"
   xmlns:rdf="http://www.w3.org/1999/02/22-rdf-syntax-ns#"
   xmlns:svg="http://www.w3.org/2000/svg"
   xmlns="http://www.w3.org/2000/svg"
   xmlns:sodipodi="http://sodipodi.sourceforge.net/DTD/sodipodi-0.dtd"
   xmlns:inkscape="http://www.inkscape.org/namespaces/inkscape"
   inkscape:version="1.0 (4035a4f, 2020-05-01)"
   sodipodi:docname="ender3.svg"
   xml:space="preserve"
   style="enable-background:new 0 0 625 625;"
   viewBox="0 0 625 625"
   y="0px"
   x="0px"
   id="Layer_1"
   version="1.1"><metadata
   id="metadata1557"><rdf:RDF><cc:Work
       rdf:about=""><dc:format>image/svg+xml</dc:format><dc:type
         rdf:resource="http://purl.org/dc/dcmitype/StillImage" /><dc:title></dc:title></cc:Work></rdf:RDF></metadata><defs
   id="defs1555" /><sodipodi:namedview
   inkscape:guide-bbox="true"
   showguides="true"
   inkscape:current-layer="Layer_1"
   inkscape:window-maximized="0"
   inkscape:window-y="25"
   inkscape:window-x="546"
   inkscape:cy="312.75375"
   inkscape:cx="246.70151"
   inkscape:zoom="8.8140703"
   showgrid="false"
   id="namedview1553"
   inkscape:window-height="1289"
   inkscape:window-width="2510"
   inkscape:pageshadow="2"
   inkscape:pageopacity="0"
   guidetolerance="10"
   gridtolerance="10"
   objecttolerance="10"
   borderopacity="1"
   bordercolor="#666666"
   pagecolor="#171717"><sodipodi:guide
     id="guide2011"
     orientation="1,0"
     position="14.165846,583.55178" /></sodipodi:namedview>
<style
   id="style1268"
   type="text/css">
	.st0{fill:none;stroke:#FFFFFF;stroke-width:1.42;stroke-linecap:round;stroke-linejoin:round;}
	.st1{fill:none;stroke:#FFFFFF;stroke-width:0.37;stroke-linecap:round;stroke-linejoin:round;}
	.st2{fill:#FFFFFF;}
</style>













































































































































<line
   x1="0.96269602"
   y1="0.77956963"
   x2="0.96269602"
   y2="624.04956"
   fill="none"
   stroke="#ffffff"
   stroke-linecap="round"
   stroke-linejoin="round"
   stroke-width="1.45301"
   id="line392" /><line
   x1="142.69264"
   y1="1.9067796"
   x2="142.69264"
   y2="609.87958"
   fill="none"
   stroke="#ffffff"
   stroke-linecap="round"
   stroke-linejoin="round"
   stroke-width="1.45246"
   id="line394" /><line
   x1="284.42267"
   y1="1.6778802"
   x2="284.42267"
   y2="609.87958"
   fill="none"
   stroke="#ffffff"
   stroke-linecap="round"
   stroke-linejoin="round"
   stroke-width="1.45274"
   id="line396" /><line
   x1="624.58264"
   y1="609.87958"
   x2="624.58264"
   y2="0.77956963"
   fill="none"
   stroke="#ffffff"
   stroke-linecap="round"
   stroke-linejoin="round"
   stroke-width="1.45381"
   id="line398" /><line
   x1="14.502695"
   y1="609.87958"
   x2="709.62262"
   y2="609.87958"
   fill="none"
   stroke="#ffffff"
   stroke-linecap="round"
   stroke-linejoin="round"
   stroke-width="1.42"
   id="line400" /><line
   x1="0.96269602"
   y1="624.04956"
   x2="709.62262"
   y2="624.04956"
   fill="none"
   stroke="#ffffff"
   stroke-linecap="round"
   stroke-linejoin="round"
   stroke-width="1.42"
   id="line402" /><line
   x1="14.502695"
   y1="468.14954"
   x2="709.62262"
   y2="468.14954"
   fill="none"
   stroke="#ffffff"
   stroke-linecap="round"
   stroke-linejoin="round"
   stroke-width="1.42"
   id="line404" /><line
   x1="14.502695"
   y1="326.41956"
   x2="709.62262"
   y2="326.41956"
   fill="none"
   stroke="#ffffff"
   stroke-linecap="round"
   stroke-linejoin="round"
   stroke-width="1.42"
   id="line406" /><line
   x1="14.502695"
   y1="184.67957"
   x2="709.62262"
   y2="184.67957"
   fill="none"
   stroke="#ffffff"
   stroke-linecap="round"
   stroke-linejoin="round"
   stroke-width="1.42"
   id="line408" /><line
   x1="14.502695"
   y1="42.94957"
   x2="709.62262"
   y2="42.94957"
   fill="none"
   stroke="#ffffff"
   stroke-linecap="round"
   stroke-linejoin="round"
   stroke-width="1.42"
   id="line410" /><line
   x1="709.62262"
   y1="0.77956963"
   x2="0.96269602"
   y2="0.77956963"
   fill="none"
   stroke="#ffffff"
   stroke-linecap="round"
   stroke-linejoin="round"
   stroke-width="1.42"
   id="line412" /><line
   x1="426.16266"
   y1="1.5002513"
   x2="426.16266"
   y2="527.41956"
   fill="none"
   stroke="#ffffff"
   stroke-linecap="round"
   stroke-linejoin="round"
   stroke-width="1.45833"
   id="line414" /><line
   x1="426.16266"
   y1="550.60956"
   x2="426.16266"
   y2="609.87958"
   fill="none"
   stroke="#ffffff"
   stroke-linecap="round"
   stroke-linejoin="round"
   stroke-width="1.42"
   id="line416" /><line
   x1="567.89264"
   y1="0.77956963"
   x2="567.89264"
   y2="523.44629"
   fill="none"
   stroke="#ffffff"
   stroke-linecap="round"
   stroke-linejoin="round"
   stroke-width="1.45381"
   id="line418" /><line
   x1="567.89264"
   y1="550.60956"
   x2="567.89264"
   y2="555.75958"
   fill="none"
   stroke="#ffffff"
   stroke-linecap="round"
   stroke-linejoin="round"
   stroke-width="1.42"
   id="line420" /><line
   x1="567.89264"
   y1="519.59521"
   x2="567.89264"
   y2="609.87958"
   fill="none"
   stroke="#ffffff"
   stroke-linecap="round"
   stroke-linejoin="round"
   stroke-width="2.33116"
   id="line422" /><line
   x1="86.002731"
   y1="1.5617981"
   x2="86.002731"
   y2="609.87958"
   fill="none"
   stroke="#ffffff"
   stroke-linecap="round"
   stroke-linejoin="round"
   stroke-width="0.378566"
   id="line424" /><line
   x1="114.34272"
   y1="0.78283828"
   x2="114.34272"
   y2="609.87958"
   fill="none"
   stroke="#ffffff"
   stroke-linecap="round"
   stroke-linejoin="round"
   stroke-width="0.378808"
   id="line426" /><line
   x1="171.04263"
   y1="1.0577652"
   x2="171.04263"
   y2="609.87958"
   fill="none"
   stroke="#ffffff"
   stroke-linecap="round"
   stroke-linejoin="round"
   stroke-width="0.378723"
   id="line428" /><line
   x1="199.38264"
   y1="1.1035864"
   x2="199.38264"
   y2="609.87958"
   fill="none"
   stroke="#ffffff"
   stroke-linecap="round"
   stroke-linejoin="round"
   stroke-width="0.378708"
   id="line430" /><line
   x1="227.73265"
   y1="1.3326923"
   x2="227.73265"
   y2="609.87958"
   fill="none"
   stroke="#ffffff"
   stroke-linecap="round"
   stroke-linejoin="round"
   stroke-width="0.378637"
   id="line432" /><line
   x1="256.08267"
   y1="1.5617981"
   x2="256.08267"
   y2="609.87958"
   fill="none"
   stroke="#ffffff"
   stroke-linecap="round"
   stroke-linejoin="round"
   stroke-width="0.378566"
   id="line434" /><line
   x1="312.77264"
   y1="1.3326923"
   x2="312.77264"
   y2="609.87958"
   fill="none"
   stroke="#ffffff"
   stroke-linecap="round"
   stroke-linejoin="round"
   stroke-width="0.378637"
   id="line436" /><line
   x1="341.12265"
   y1="1.5617981"
   x2="341.12265"
   y2="609.87958"
   fill="none"
   stroke="#ffffff"
   stroke-linecap="round"
   stroke-linejoin="round"
   stroke-width="0.378566"
   id="line438" /><line
   x1="29.312695"
   y1="1.2410499"
   x2="29.312695"
   y2="609.87958"
   fill="none"
   stroke="#ffffff"
   stroke-linecap="round"
   stroke-linejoin="round"
   stroke-width="0.378666"
   id="line442" /><line
   x1="57.652699"
   y1="0.87448061"
   x2="57.652699"
   y2="609.87958"
   fill="none"
   stroke="#ffffff"
   stroke-linecap="round"
   stroke-linejoin="round"
   stroke-width="0.37878"
   id="line444" /><line
   x1="14.502695"
   y1="496.49957"
   x2="709.62262"
   y2="496.49957"
   fill="none"
   stroke="#ffffff"
   stroke-linecap="round"
   stroke-linejoin="round"
   stroke-width="0.37"
   id="line446" /><line
   x1="14.502695"
   y1="524.83954"
   x2="709.62262"
   y2="524.83954"
   fill="none"
   stroke="#ffffff"
   stroke-linecap="round"
   stroke-linejoin="round"
   stroke-width="0.37"
   id="line448" /><line
   x1="14.502695"
   y1="553.18958"
   x2="709.62262"
   y2="553.18958"
   fill="none"
   stroke="#ffffff"
   stroke-linecap="round"
   stroke-linejoin="round"
   stroke-width="0.37"
   id="line450" /><line
   x1="14.502695"
   y1="581.5296"
   x2="709.62262"
   y2="581.5296"
   fill="none"
   stroke="#ffffff"
   stroke-linecap="round"
   stroke-linejoin="round"
   stroke-width="0.37"
   id="line452" /><line
   x1="14.502695"
   y1="439.79956"
   x2="709.62262"
   y2="439.79956"
   fill="none"
   stroke="#ffffff"
   stroke-linecap="round"
   stroke-linejoin="round"
   stroke-width="0.37"
   id="line454" /><line
   x1="14.502695"
   y1="411.45956"
   x2="709.62262"
   y2="411.45956"
   fill="none"
   stroke="#ffffff"
   stroke-linecap="round"
   stroke-linejoin="round"
   stroke-width="0.37"
   id="line456" /><line
   x1="14.502695"
   y1="383.10956"
   x2="709.62262"
   y2="383.10956"
   fill="none"
   stroke="#ffffff"
   stroke-linecap="round"
   stroke-linejoin="round"
   stroke-width="0.37"
   id="line458" /><line
   x1="14.502695"
   y1="354.75955"
   x2="709.62262"
   y2="354.75955"
   fill="none"
   stroke="#ffffff"
   stroke-linecap="round"
   stroke-linejoin="round"
   stroke-width="0.37"
   id="line460" /><line
   x1="14.502695"
   y1="298.06955"
   x2="709.62262"
   y2="298.06955"
   fill="none"
   stroke="#ffffff"
   stroke-linecap="round"
   stroke-linejoin="round"
   stroke-width="0.37"
   id="line462" /><line
   x1="14.502695"
   y1="269.71954"
   x2="709.62262"
   y2="269.71954"
   fill="none"
   stroke="#ffffff"
   stroke-linecap="round"
   stroke-linejoin="round"
   stroke-width="0.37"
   id="line464" /><line
   x1="14.502695"
   y1="241.37955"
   x2="709.62262"
   y2="241.37955"
   fill="none"
   stroke="#ffffff"
   stroke-linecap="round"
   stroke-linejoin="round"
   stroke-width="0.37"
   id="line466" /><line
   x1="14.502695"
   y1="213.02957"
   x2="709.62262"
   y2="213.02957"
   fill="none"
   stroke="#ffffff"
   stroke-linecap="round"
   stroke-linejoin="round"
   stroke-width="0.37"
   id="line468" /><line
   x1="14.502695"
   y1="156.33955"
   x2="709.62262"
   y2="156.33955"
   fill="none"
   stroke="#ffffff"
   stroke-linecap="round"
   stroke-linejoin="round"
   stroke-width="0.37"
   id="line470" /><line
   x1="14.502695"
   y1="127.98957"
   x2="709.62262"
   y2="127.98957"
   fill="none"
   stroke="#ffffff"
   stroke-linecap="round"
   stroke-linejoin="round"
   stroke-width="0.37"
   id="line472" /><line
   x1="14.502695"
   y1="99.63958"
   x2="709.62262"
   y2="99.63958"
   fill="none"
   stroke="#ffffff"
   stroke-linecap="round"
   stroke-linejoin="round"
   stroke-width="0.37"
   id="line474" /><line
   x1="14.502695"
   y1="71.299583"
   x2="709.62262"
   y2="71.299583"
   fill="none"
   stroke="#ffffff"
   stroke-linecap="round"
   stroke-linejoin="round"
   stroke-width="0.37"
   id="line476" /><line
   x1="369.46265"
   y1="1.2424982"
   x2="369.46265"
   y2="527.41956"
   fill="none"
   stroke="#ffffff"
   stroke-linecap="round"
   stroke-linejoin="round"
   stroke-width="0.380079"
   id="line478" /><line
   x1="369.46265"
   y1="550.60956"
   x2="369.46265"
   y2="609.87958"
   fill="none"
   stroke="#ffffff"
   stroke-linecap="round"
   stroke-linejoin="round"
   stroke-width="0.37"
   id="line480" /><line
   x1="397.81265"
   y1="1.4715919"
   x2="397.81265"
   y2="527.41956"
   fill="none"
   stroke="#ffffff"
   stroke-linecap="round"
   stroke-linejoin="round"
   stroke-width="0.379996"
   id="line482" /><line
   x1="397.81265"
   y1="550.60956"
   x2="397.81265"
   y2="609.87958"
   fill="none"
   stroke="#ffffff"
   stroke-linecap="round"
   stroke-linejoin="round"
   stroke-width="0.37"
   id="line484" /><line
   x1="454.50266"
   y1="0.96758568"
   x2="454.50266"
   y2="527.41956"
   fill="none"
   stroke="#ffffff"
   stroke-linecap="round"
   stroke-linejoin="round"
   stroke-width="0.380179"
   id="line486" /><line
   x1="454.50266"
   y1="550.60956"
   x2="454.50266"
   y2="609.87958"
   fill="none"
   stroke="#ffffff"
   stroke-linecap="round"
   stroke-linejoin="round"
   stroke-width="0.37"
   id="line488" /><line
   x1="482.85269"
   y1="0.96758568"
   x2="482.85269"
   y2="527.41956"
   fill="none"
   stroke="#ffffff"
   stroke-linecap="round"
   stroke-linejoin="round"
   stroke-width="0.380179"
   id="line490" /><line
   x1="482.85269"
   y1="550.60956"
   x2="482.85269"
   y2="609.87958"
   fill="none"
   stroke="#ffffff"
   stroke-linecap="round"
   stroke-linejoin="round"
   stroke-width="0.37"
   id="line492" /><line
   x1="511.19263"
   y1="0.77956963"
   x2="511.19263"
   y2="523.44629"
   fill="none"
   stroke="#ffffff"
   stroke-linecap="round"
   stroke-linejoin="round"
   stroke-width="0.378809"
   id="line494" /><line
   x1="511.19263"
   y1="550.60956"
   x2="511.19263"
   y2="609.87958"
   fill="none"
   stroke="#ffffff"
   stroke-linecap="round"
   stroke-linejoin="round"
   stroke-width="0.37"
   id="line496" /><line
   x1="539.5426"
   y1="0.77956963"
   x2="539.5426"
   y2="523.44629"
   fill="none"
   stroke="#ffffff"
   stroke-linecap="round"
   stroke-linejoin="round"
   stroke-width="0.378809"
   id="line498" /><line
   x1="539.5426"
   y1="550.60956"
   x2="539.5426"
   y2="609.87958"
   fill="none"
   stroke="#ffffff"
   stroke-linecap="round"
   stroke-linejoin="round"
   stroke-width="0.37"
   id="line500" /><line
   x1="596.2326"
   y1="1.4748074"
   x2="596.2326"
   y2="527.41956"
   fill="none"
   stroke="#ffffff"
   stroke-linecap="round"
   stroke-linejoin="round"
   stroke-width="0.379995"
   id="line502" /><line
   x1="624.58264"
   y1="0.77956963"
   x2="624.58264"
   y2="523.44629"
   fill="none"
   stroke="#ffffff"
   stroke-linecap="round"
   stroke-linejoin="round"
   stroke-width="0.378809"
   id="line504" /><line
   x1="624.58264"
   y1="550.60956"
   x2="624.58264"
   y2="555.75958"
   fill="none"
   stroke="#ffffff"
   stroke-linecap="round"
   stroke-linejoin="round"
   stroke-width="0.37"
   id="line512" /><line
   x1="624.58264"
   y1="576.37958"
   x2="624.58264"
   y2="609.87958"
   fill="none"
   stroke="#ffffff"
   stroke-linecap="round"
   stroke-linejoin="round"
   stroke-width="0.37"
   id="line514" /><line
   x1="596.2326"
   y1="550.60956"
   x2="596.2326"
   y2="555.75958"
   fill="none"
   stroke="#ffffff"
   stroke-linecap="round"
   stroke-linejoin="round"
   stroke-width="0.37"
   id="line516" /><line
   x1="596.2326"
   y1="524.14148"
   x2="596.2326"
   y2="609.87958"
   fill="none"
   stroke="#ffffff"
   stroke-linecap="round"
   stroke-linejoin="round"
   stroke-width="0.591924"
   id="line518" /><path
   d="m 27.392697,616.48957 a 3.33,3.33 0 0 0 0.56,0 2.26,2.26 0 0 0 0.5,-0.16 1.32,1.32 0 0 0 0.37,-0.29 0.92,0.92 0 0 0 0.21,-0.43 h 0.74 v 5.6 h -1 v -4 h -1.38 z"
   fill="#ffffff"
   id="path520" /><path
   d="m 59.092693,621.20957 h -3.83 a 2.35,2.35 0 0 1 0.34,-1.22 3.21,3.21 0 0 1 0.9,-0.9 l 0.56,-0.39 a 4.56,4.56 0 0 0 0.55,-0.4 2.56,2.56 0 0 0 0.41,-0.47 1.23,1.23 0 0 0 0.17,-0.58 2.11,2.11 0 0 0 0,-0.33 0.83,0.83 0 0 0 -0.14,-0.32 0.76,0.76 0 0 0 -0.29,-0.24 1,1 0 0 0 -0.48,-0.11 0.88,0.88 0 0 0 -0.45,0.11 0.83,0.83 0 0 0 -0.29,0.3 1.43,1.43 0 0 0 -0.16,0.44 2.53,2.53 0 0 0 -0.06,0.56 h -0.93 a 2.93,2.93 0 0 1 0.12,-0.86 1.91,1.91 0 0 1 0.37,-0.69 1.83,1.83 0 0 1 0.61,-0.45 2.16,2.16 0 0 1 1.68,0 1.64,1.64 0 0 1 0.56,0.43 1.56,1.56 0 0 1 0.3,0.55 2.05,2.05 0 0 1 0.09,0.58 1.74,1.74 0 0 1 -0.11,0.61 2.06,2.06 0 0 1 -0.28,0.5 2.63,2.63 0 0 1 -0.4,0.42 l -0.46,0.36 -0.48,0.32 -0.45,0.3 a 2.72,2.72 0 0 0 -0.35,0.32 0.91,0.91 0 0 0 -0.21,0.35 h 2.71 z"
   fill="#ffffff"
   id="path522" /><path
   d="m 85.122693,617.87957 h 0.45 a 1.57,1.57 0 0 0 0.4,-0.14 0.86,0.86 0 0 0 0.29,-0.28 0.83,0.83 0 0 0 0.1,-0.43 0.75,0.75 0 0 0 -0.24,-0.58 1,1 0 0 0 -1,-0.12 0.89,0.89 0 0 0 -0.29,0.26 1.14,1.14 0 0 0 -0.17,0.37 1.51,1.51 0 0 0 0,0.42 h -0.91 a 2.39,2.39 0 0 1 0.15,-0.76 2,2 0 0 1 0.37,-0.6 1.59,1.59 0 0 1 0.58,-0.4 1.81,1.81 0 0 1 0.76,-0.15 2.31,2.31 0 0 1 0.64,0.1 1.89,1.89 0 0 1 0.57,0.28 1.31,1.31 0 0 1 0.4,0.47 1.28,1.28 0 0 1 0.16,0.65 1.36,1.36 0 0 1 -0.2,0.74 1,1 0 0 1 -0.6,0.46 v 0 a 1.13,1.13 0 0 1 0.75,0.48 1.7,1.7 0 0 1 0.11,1.64 1.6,1.6 0 0 1 -0.43,0.53 1.91,1.91 0 0 1 -0.63,0.34 2.43,2.43 0 0 1 -0.77,0.12 2.23,2.23 0 0 1 -0.85,-0.14 1.68,1.68 0 0 1 -0.61,-0.39 1.83,1.83 0 0 1 -0.37,-0.62 2.85,2.85 0 0 1 -0.14,-0.8 h 0.92 a 1.25,1.25 0 0 0 0.25,0.85 1,1 0 0 0 0.8,0.34 1.12,1.12 0 0 0 0.77,-0.26 0.93,0.93 0 0 0 0.31,-0.74 1,1 0 0 0 -0.13,-0.52 0.87,0.87 0 0 0 -0.34,-0.29 1.16,1.16 0 0 0 -0.47,-0.12 3.09,3.09 0 0 0 -0.53,0 z"
   fill="#ffffff"
   id="path524" /><path
   d="m 115.69269,619.82957 h -0.72 v 1.38 h -0.87 v -1.33 h -2.4 v -0.9 l 2.4,-3.37 h 0.87 v 3.55 h 0.72 z m -3.3,-0.72 h 1.69 v -2.46 0 z"
   fill="#ffffff"
   id="path526" /><path
   d="m 140.97269,615.55957 h 2.9 v 0.81 h -2.21 l -0.29,1.43 v 0 a 1.19,1.19 0 0 1 0.47,-0.32 1.65,1.65 0 0 1 0.57,-0.11 2,2 0 0 1 0.74,0.14 1.45,1.45 0 0 1 0.55,0.39 1.62,1.62 0 0 1 0.34,0.6 2.25,2.25 0 0 1 0.12,0.74 2.49,2.49 0 0 1 -0.11,0.7 2.13,2.13 0 0 1 -0.34,0.65 1.82,1.82 0 0 1 -1.49,0.66 2.57,2.57 0 0 1 -0.75,-0.1 1.84,1.84 0 0 1 -0.62,-0.33 1.7,1.7 0 0 1 -0.42,-0.53 1.87,1.87 0 0 1 -0.17,-0.74 h 0.91 a 1,1 0 0 0 0.32,0.7 1,1 0 0 0 0.72,0.24 1.14,1.14 0 0 0 0.48,-0.09 0.8,0.8 0 0 0 0.33,-0.27 1,1 0 0 0 0.17,-0.39 1.86,1.86 0 0 0 0.06,-0.48 1.31,1.31 0 0 0 -0.07,-0.44 1,1 0 0 0 -0.19,-0.38 0.93,0.93 0 0 0 -0.33,-0.25 1.06,1.06 0 0 0 -0.48,-0.1 1.41,1.41 0 0 0 -0.54,0.11 0.65,0.65 0 0 0 -0.36,0.4 h -0.89 z"
   fill="#ffffff"
   id="path528" /><path
   d="m 171.39269,616.96957 a 0.85,0.85 0 0 0 -0.24,-0.55 0.78,0.78 0 0 0 -0.57,-0.22 0.94,0.94 0 0 0 -0.43,0.1 1,1 0 0 0 -0.31,0.24 1.68,1.68 0 0 0 -0.2,0.35 2.77,2.77 0 0 0 -0.12,0.41 c 0,0.15 0,0.29 -0.07,0.43 v 0.4 0 a 1.17,1.17 0 0 1 0.51,-0.5 1.53,1.53 0 0 1 0.7,-0.16 2,2 0 0 1 0.75,0.14 1.69,1.69 0 0 1 0.55,0.4 1.79,1.79 0 0 1 0.35,0.6 2.21,2.21 0 0 1 0.12,0.74 2.13,2.13 0 0 1 -0.13,0.76 2,2 0 0 1 -0.38,0.61 1.87,1.87 0 0 1 -0.59,0.4 1.9,1.9 0 0 1 -0.76,0.14 2.06,2.06 0 0 1 -1,-0.22 1.7,1.7 0 0 1 -0.62,-0.63 2.76,2.76 0 0 1 -0.32,-0.93 6.88,6.88 0 0 1 -0.09,-1.15 5,5 0 0 1 0.11,-1 3,3 0 0 1 0.36,-0.94 1.93,1.93 0 0 1 0.65,-0.68 1.76,1.76 0 0 1 1,-0.27 1.68,1.68 0 0 1 0.63,0.12 1.6,1.6 0 0 1 0.52,0.31 1.5,1.5 0 0 1 0.38,0.48 1.58,1.58 0 0 1 0.16,0.62 z m -0.88,3.54 a 0.89,0.89 0 0 0 0.44,-0.1 0.83,0.83 0 0 0 0.3,-0.26 0.93,0.93 0 0 0 0.19,-0.37 1.61,1.61 0 0 0 0.06,-0.44 1.54,1.54 0 0 0 -0.06,-0.43 0.89,0.89 0 0 0 -0.19,-0.36 0.81,0.81 0 0 0 -0.3,-0.25 0.89,0.89 0 0 0 -0.44,-0.1 1,1 0 0 0 -0.43,0.09 1,1 0 0 0 -0.32,0.25 1.13,1.13 0 0 0 -0.19,0.36 1.62,1.62 0 0 0 -0.07,0.44 1.5,1.5 0 0 0 0.07,0.44 1.23,1.23 0 0 0 0.19,0.38 1,1 0 0 0 0.32,0.26 1,1 0 0 0 0.4,0.09 z"
   fill="#ffffff"
   id="path530" /><path
   d="m 196.96269,615.55957 h 3.84 v 0.76 a 8.63,8.63 0 0 0 -0.8,1 7.28,7.28 0 0 0 -0.63,1.13 6.93,6.93 0 0 0 -0.44,1.26 8.62,8.62 0 0 0 -0.22,1.42 h -1 a 6.54,6.54 0 0 1 0.23,-1.31 8.27,8.27 0 0 1 0.46,-1.26 9.7,9.7 0 0 1 0.66,-1.17 10.46,10.46 0 0 1 0.81,-1.05 h -2.91 z"
   fill="#ffffff"
   id="path532" /><path
   d="m 227.25269,621.26957 a 2.45,2.45 0 0 1 -0.78,-0.12 1.73,1.73 0 0 1 -0.63,-0.34 1.51,1.51 0 0 1 -0.45,-0.6 1.78,1.78 0 0 1 -0.15,-0.74 1.45,1.45 0 0 1 0.27,-0.89 1.36,1.36 0 0 1 0.75,-0.48 v 0 a 1.28,1.28 0 0 1 -0.59,-0.45 1.26,1.26 0 0 1 -0.2,-0.71 1.43,1.43 0 0 1 0.45,-1.12 2.25,2.25 0 0 1 2.59,0 1.43,1.43 0 0 1 0.45,1.12 1.26,1.26 0 0 1 -0.2,0.71 1.28,1.28 0 0 1 -0.59,0.45 v 0 a 1.36,1.36 0 0 1 0.75,0.48 1.45,1.45 0 0 1 0.27,0.89 1.78,1.78 0 0 1 -0.15,0.74 1.51,1.51 0 0 1 -0.41,0.56 1.73,1.73 0 0 1 -0.63,0.34 2.47,2.47 0 0 1 -0.75,0.16 z m 0,-0.72 a 1.13,1.13 0 0 0 0.77,-0.27 1,1 0 0 0 0.3,-0.77 0.89,0.89 0 0 0 -0.3,-0.72 1.26,1.26 0 0 0 -1.53,0 0.89,0.89 0 0 0 -0.3,0.72 1,1 0 0 0 0.3,0.77 1.12,1.12 0 0 0 0.76,0.27 z m 0,-4.39 a 0.91,0.91 0 0 0 -0.62,0.23 0.88,0.88 0 0 0 0,1.24 1,1 0 0 0 1.27,0 0.88,0.88 0 0 0 0,-1.24 0.92,0.92 0 0 0 -0.65,-0.18 z"
   fill="#ffffff"
   id="path534" /><path
   d="m 254.80269,619.73957 a 0.87,0.87 0 0 0 0.24,0.56 0.81,0.81 0 0 0 0.58,0.21 0.83,0.83 0 0 0 0.58,-0.19 1.31,1.31 0 0 0 0.34,-0.49 2.17,2.17 0 0 0 0.17,-0.63 c 0,-0.22 0.05,-0.42 0.07,-0.61 v 0 a 1.33,1.33 0 0 1 -0.5,0.5 1.55,1.55 0 0 1 -0.71,0.17 1.85,1.85 0 0 1 -0.72,-0.14 1.68,1.68 0 0 1 -0.56,-0.38 1.83,1.83 0 0 1 -0.36,-0.59 2.36,2.36 0 0 1 -0.13,-0.78 2.33,2.33 0 0 1 0.13,-0.76 1.84,1.84 0 0 1 0.38,-0.61 1.62,1.62 0 0 1 0.61,-0.4 2.09,2.09 0 0 1 0.81,-0.15 1.92,1.92 0 0 1 1,0.23 1.52,1.52 0 0 1 0.6,0.63 2.75,2.75 0 0 1 0.31,0.93 7,7 0 0 1 0.09,1.15 5,5 0 0 1 -0.11,1 3.14,3.14 0 0 1 -0.35,0.93 2.08,2.08 0 0 1 -0.66,0.69 1.74,1.74 0 0 1 -1,0.26 1.69,1.69 0 0 1 -0.64,-0.11 1.71,1.71 0 0 1 -0.52,-0.31 1.55,1.55 0 0 1 -0.53,-1.11 z m 0.87,-3.54 a 1,1 0 0 0 -0.43,0.1 0.81,0.81 0 0 0 -0.3,0.25 1.16,1.16 0 0 0 -0.18,0.37 1.54,1.54 0 0 0 -0.06,0.43 1.56,1.56 0 0 0 0.06,0.44 1.11,1.11 0 0 0 0.18,0.38 1.08,1.08 0 0 0 0.3,0.26 1,1 0 0 0 0.43,0.1 0.93,0.93 0 0 0 0.45,-0.1 0.9,0.9 0 0 0 0.32,-0.26 1.35,1.35 0 0 0 0.19,-0.38 1.56,1.56 0 0 0 0.06,-0.44 1.54,1.54 0 0 0 -0.06,-0.43 1.43,1.43 0 0 0 -0.19,-0.37 1,1 0 0 0 -0.32,-0.25 1.06,1.06 0 0 0 -0.45,-0.09 z"
   fill="#ffffff"
   id="path536" /><path
   d="m 279.04269,616.48957 a 3.43,3.43 0 0 0 0.56,0 2.17,2.17 0 0 0 0.49,-0.16 1.24,1.24 0 0 0 0.38,-0.29 0.92,0.92 0 0 0 0.21,-0.43 h 0.71 v 5.6 h -1 v -4 h -1.38 z"
   fill="#ffffff"
   id="path538" /><path
   d="m 285.30269,615.43957 a 1.67,1.67 0 0 1 1,0.28 1.86,1.86 0 0 1 0.59,0.71 3.13,3.13 0 0 1 0.29,0.94 7,7 0 0 1 0,2 3.13,3.13 0 0 1 -0.29,0.94 1.94,1.94 0 0 1 -0.59,0.71 1.67,1.67 0 0 1 -1,0.27 1.7,1.7 0 0 1 -1,-0.27 1.94,1.94 0 0 1 -0.59,-0.71 3.13,3.13 0 0 1 -0.29,-0.94 7,7 0 0 1 0,-2 3.13,3.13 0 0 1 0.29,-0.94 1.86,1.86 0 0 1 0.59,-0.71 1.7,1.7 0 0 1 1,-0.28 z m 0,5.07 a 0.7,0.7 0 0 0 0.49,-0.17 1.12,1.12 0 0 0 0.32,-0.46 2.69,2.69 0 0 0 0.16,-0.69 6.91,6.91 0 0 0 0,-1.66 2.52,2.52 0 0 0 -0.16,-0.68 1.09,1.09 0 0 0 -0.32,-0.47 0.71,0.71 0 0 0 -0.49,-0.18 0.74,0.74 0 0 0 -0.51,0.18 1.17,1.17 0 0 0 -0.31,0.47 3,3 0 0 0 -0.16,0.68 6.91,6.91 0 0 0 0,1.66 3.19,3.19 0 0 0 0.16,0.69 1.2,1.2 0 0 0 0.31,0.46 0.73,0.73 0 0 0 0.51,0.17 z"
   fill="#ffffff"
   id="path540" /><path
   d="m 308.20269,616.48957 a 3.43,3.43 0 0 0 0.56,0 2.35,2.35 0 0 0 0.49,-0.16 1.37,1.37 0 0 0 0.38,-0.29 0.9,0.9 0 0 0 0.2,-0.43 h 0.75 v 5.6 h -1 v -4 h -1.38 z"
   fill="#ffffff"
   id="path542" /><path
   d="m 312.65269,616.48957 a 3.43,3.43 0 0 0 0.56,0 2.17,2.17 0 0 0 0.49,-0.16 1.24,1.24 0 0 0 0.38,-0.29 0.9,0.9 0 0 0 0.2,-0.43 h 0.75 v 5.6 h -1 v -4 h -1.38 z"
   fill="#ffffff"
   id="path544" /><path
   d="m 335.73269,616.48957 a 3.33,3.33 0 0 0 0.56,0 2.26,2.26 0 0 0 0.5,-0.16 1.32,1.32 0 0 0 0.37,-0.29 0.83,0.83 0 0 0 0.21,-0.43 h 0.74 v 5.6 h -1 v -4 h -1.38 z"
   fill="#ffffff"
   id="path546" /><path
   d="m 343.90269,621.20957 h -3.83 a 2.35,2.35 0 0 1 0.34,-1.22 3.21,3.21 0 0 1 0.9,-0.9 l 0.57,-0.39 a 4.44,4.44 0 0 0 0.54,-0.4 2.23,2.23 0 0 0 0.41,-0.47 1.13,1.13 0 0 0 0.17,-0.58 1.35,1.35 0 0 0 0,-0.33 0.83,0.83 0 0 0 -0.14,-0.32 0.7,0.7 0 0 0 -0.29,-0.24 1,1 0 0 0 -0.48,-0.11 0.88,0.88 0 0 0 -0.45,0.11 0.83,0.83 0 0 0 -0.29,0.3 1.75,1.75 0 0 0 -0.16,0.44 4.8,4.8 0 0 0 -0.06,0.56 h -0.91 a 2.93,2.93 0 0 1 0.12,-0.86 1.92,1.92 0 0 1 0.38,-0.69 1.69,1.69 0 0 1 0.6,-0.45 2,2 0 0 1 0.83,-0.17 2,2 0 0 1 0.86,0.17 1.7,1.7 0 0 1 0.55,0.43 1.56,1.56 0 0 1 0.3,0.55 2.05,2.05 0 0 1 0.09,0.58 1.74,1.74 0 0 1 -0.1,0.61 2.46,2.46 0 0 1 -0.28,0.5 4,4 0 0 1 -0.4,0.42 l -0.47,0.36 -0.48,0.32 c -0.16,0.1 -0.31,0.2 -0.44,0.3 a 2.27,2.27 0 0 0 -0.36,0.32 0.91,0.91 0 0 0 -0.21,0.35 h 2.73 z"
   fill="#ffffff"
   id="path548" /><path
   d="m 364.08269,616.48957 a 3.43,3.43 0 0 0 0.56,0 2.17,2.17 0 0 0 0.49,-0.16 1.24,1.24 0 0 0 0.38,-0.29 0.9,0.9 0 0 0 0.2,-0.43 h 0.75 v 5.6 h -1 v -4 h -1.38 z"
   fill="#ffffff"
   id="path550" /><path
   d="m 369.93269,617.87957 h 0.45 a 1.45,1.45 0 0 0 0.4,-0.14 0.78,0.78 0 0 0 0.29,-0.28 0.83,0.83 0 0 0 0.11,-0.43 0.76,0.76 0 0 0 -0.25,-0.58 0.93,0.93 0 0 0 -0.63,-0.22 0.86,0.86 0 0 0 -0.41,0.1 0.83,0.83 0 0 0 -0.3,0.26 1.4,1.4 0 0 0 -0.17,0.37 1.51,1.51 0 0 0 0,0.42 h -0.91 a 2.39,2.39 0 0 1 0.15,-0.76 1.86,1.86 0 0 1 0.38,-0.6 1.47,1.47 0 0 1 0.57,-0.4 1.84,1.84 0 0 1 0.76,-0.15 2.31,2.31 0 0 1 0.64,0.1 1.89,1.89 0 0 1 0.57,0.28 1.44,1.44 0 0 1 0.41,0.47 1.38,1.38 0 0 1 0.15,0.65 1.45,1.45 0 0 1 -0.19,0.74 1.09,1.09 0 0 1 -0.6,0.46 v 0 a 1.09,1.09 0 0 1 0.74,0.48 1.7,1.7 0 0 1 0.11,1.64 1.48,1.48 0 0 1 -0.43,0.53 1.91,1.91 0 0 1 -0.63,0.34 2.42,2.42 0 0 1 -0.76,0.12 2.28,2.28 0 0 1 -0.86,-0.14 1.56,1.56 0 0 1 -0.6,-0.39 1.7,1.7 0 0 1 -0.38,-0.62 2.53,2.53 0 0 1 -0.13,-0.8 h 0.91 a 1.25,1.25 0 0 0 0.25,0.85 1,1 0 0 0 0.81,0.34 1.1,1.1 0 0 0 0.76,-0.26 1.06,1.06 0 0 0 0.18,-1.26 0.84,0.84 0 0 0 -0.33,-0.29 1.21,1.21 0 0 0 -0.47,-0.12 3.21,3.21 0 0 0 -0.54,0 z"
   fill="#ffffff"
   id="path552" /><path
   d="m 392.29269,616.48957 a 3.43,3.43 0 0 0 0.56,0 2.44,2.44 0 0 0 0.5,-0.16 1.32,1.32 0 0 0 0.37,-0.29 0.92,0.92 0 0 0 0.21,-0.43 h 0.74 v 5.6 h -1 v -4 h -1.38 z"
   fill="#ffffff"
   id="path554" /><path
   d="m 400.50269,619.82957 h -0.72 v 1.38 h -0.87 v -1.33 h -2.4 v -0.9 l 2.4,-3.37 h 0.87 v 3.55 h 0.72 z m -3.28,-0.72 h 1.69 v -2.46 0 z"
   fill="#ffffff"
   id="path556" /><path
   d="m 420.77269,616.48957 a 3.33,3.33 0 0 0 0.56,0 2.26,2.26 0 0 0 0.5,-0.16 1.32,1.32 0 0 0 0.37,-0.29 0.83,0.83 0 0 0 0.21,-0.43 h 0.74 v 5.6 h -1 v -4 h -1.38 z"
   fill="#ffffff"
   id="path558" /><path
   d="m 425.79269,615.55957 h 2.9 v 0.81 h -2.22 l -0.29,1.43 v 0 a 1.19,1.19 0 0 1 0.47,-0.32 1.65,1.65 0 0 1 0.57,-0.11 1.91,1.91 0 0 1 0.74,0.14 1.38,1.38 0 0 1 0.55,0.39 1.79,1.79 0 0 1 0.35,0.6 2.55,2.55 0 0 1 0.11,0.74 2.17,2.17 0 0 1 -0.11,0.7 1.93,1.93 0 0 1 -0.34,0.65 2,2 0 0 1 -0.61,0.48 1.94,1.94 0 0 1 -0.88,0.18 2.57,2.57 0 0 1 -0.75,-0.1 1.84,1.84 0 0 1 -0.62,-0.33 1.7,1.7 0 0 1 -0.42,-0.53 1.87,1.87 0 0 1 -0.17,-0.74 h 0.91 a 1,1 0 0 0 1,0.94 1.22,1.22 0 0 0 0.49,-0.09 0.84,0.84 0 0 0 0.32,-0.27 1.17,1.17 0 0 0 0.18,-0.39 2.44,2.44 0 0 0 0.05,-0.48 1.31,1.31 0 0 0 -0.07,-0.44 1,1 0 0 0 -0.19,-0.38 0.85,0.85 0 0 0 -0.33,-0.25 1,1 0 0 0 -0.48,-0.1 1.41,1.41 0 0 0 -0.54,0.11 0.65,0.65 0 0 0 -0.36,0.4 h -0.91 z"
   fill="#ffffff"
   id="path560" /><path
   d="m 449.12269,616.48957 a 3.43,3.43 0 0 0 0.56,0 2.17,2.17 0 0 0 0.49,-0.16 1.24,1.24 0 0 0 0.38,-0.29 0.9,0.9 0 0 0 0.2,-0.43 h 0.75 v 5.6 h -1 v -4 h -1.38 z"
   fill="#ffffff"
   id="path562" /><path
   d="m 456.31269,616.96957 a 0.85,0.85 0 0 0 -0.24,-0.55 0.8,0.8 0 0 0 -0.58,-0.22 1,1 0 0 0 -0.73,0.34 1.33,1.33 0 0 0 -0.2,0.35 2.77,2.77 0 0 0 -0.12,0.41 3.49,3.49 0 0 0 -0.07,0.43 c 0,0.14 0,0.27 0,0.4 v 0 a 1.17,1.17 0 0 1 0.51,-0.5 1.5,1.5 0 0 1 0.7,-0.16 1.91,1.91 0 0 1 0.74,0.14 1.63,1.63 0 0 1 0.56,0.4 1.79,1.79 0 0 1 0.35,0.6 2.21,2.21 0 0 1 0.12,0.74 2.38,2.38 0 0 1 -0.13,0.76 2,2 0 0 1 -0.38,0.61 1.91,1.91 0 0 1 -0.6,0.4 1.87,1.87 0 0 1 -0.76,0.14 2,2 0 0 1 -1,-0.22 1.81,1.81 0 0 1 -0.63,-0.63 2.75,2.75 0 0 1 -0.31,-0.93 6.88,6.88 0 0 1 -0.09,-1.15 5,5 0 0 1 0.11,-1 3,3 0 0 1 0.36,-0.94 1.93,1.93 0 0 1 0.65,-0.68 1.74,1.74 0 0 1 1,-0.27 1.79,1.79 0 0 1 1.16,0.43 1.47,1.47 0 0 1 0.37,0.48 1.42,1.42 0 0 1 0.16,0.62 z m -0.92,3.54 a 0.83,0.83 0 0 0 0.43,-0.1 0.79,0.79 0 0 0 0.31,-0.26 1.29,1.29 0 0 0 0.19,-0.37 1.61,1.61 0 0 0 0.06,-0.44 1.54,1.54 0 0 0 -0.06,-0.43 1.23,1.23 0 0 0 -0.19,-0.36 0.76,0.76 0 0 0 -0.31,-0.25 0.83,0.83 0 0 0 -0.43,-0.1 1,1 0 0 0 -0.44,0.09 1,1 0 0 0 -0.5,0.61 1.31,1.31 0 0 0 -0.07,0.44 1.23,1.23 0 0 0 0.07,0.44 1,1 0 0 0 0.19,0.38 1,1 0 0 0 0.31,0.26 1,1 0 0 0 0.44,0.09 z"
   fill="#ffffff"
   id="path564" /><path
   d="m 477.47269,616.48957 a 3.43,3.43 0 0 0 0.56,0 2.35,2.35 0 0 0 0.49,-0.16 1.37,1.37 0 0 0 0.38,-0.29 0.9,0.9 0 0 0 0.2,-0.43 h 0.75 v 5.6 h -1 v -4 h -1.37 z"
   fill="#ffffff"
   id="path566" /><path
   d="m 481.77269,615.55957 h 3.84 v 0.76 a 9.8,9.8 0 0 0 -0.8,1 7.28,7.28 0 0 0 -0.63,1.13 7.78,7.78 0 0 0 -0.44,1.26 8.62,8.62 0 0 0 -0.22,1.42 h -1 a 6.54,6.54 0 0 1 0.23,-1.31 8.27,8.27 0 0 1 0.46,-1.26 9.7,9.7 0 0 1 0.66,-1.17 10.46,10.46 0 0 1 0.81,-1.05 h -2.91 z"
   fill="#ffffff"
   id="path568" /><path
   d="m 505.81269,616.48957 a 3.33,3.33 0 0 0 0.56,0 2.26,2.26 0 0 0 0.5,-0.16 1.32,1.32 0 0 0 0.37,-0.29 0.92,0.92 0 0 0 0.21,-0.43 h 0.74 v 5.6 h -1 v -4 h -1.38 z"
   fill="#ffffff"
   id="path570" /><path
   d="m 512.07269,621.26957 a 2.47,2.47 0 0 1 -0.79,-0.12 1.91,1.91 0 0 1 -0.63,-0.34 1.62,1.62 0 0 1 -0.41,-0.56 1.78,1.78 0 0 1 -0.15,-0.74 1.39,1.39 0 0 1 0.28,-0.89 1.3,1.3 0 0 1 0.74,-0.48 v 0 a 1.2,1.2 0 0 1 -0.58,-0.45 1.19,1.19 0 0 1 -0.21,-0.71 1.43,1.43 0 0 1 0.45,-1.12 1.91,1.91 0 0 1 1.3,-0.41 1.87,1.87 0 0 1 1.29,0.41 1.43,1.43 0 0 1 0.45,1.12 1.26,1.26 0 0 1 -0.2,0.71 1.23,1.23 0 0 1 -0.59,0.45 v 0 a 1.36,1.36 0 0 1 0.75,0.48 1.45,1.45 0 0 1 0.28,0.89 1.78,1.78 0 0 1 -0.15,0.74 1.65,1.65 0 0 1 -0.42,0.56 1.77,1.77 0 0 1 -0.62,0.34 2.56,2.56 0 0 1 -0.79,0.12 z m 0,-0.72 a 1.12,1.12 0 0 0 0.76,-0.27 1,1 0 0 0 0.3,-0.77 0.89,0.89 0 0 0 -0.3,-0.72 1.12,1.12 0 0 0 -0.76,-0.26 1.08,1.08 0 0 0 -0.76,0.26 0.87,0.87 0 0 0 -0.31,0.72 1,1 0 0 0 0.31,0.77 1.09,1.09 0 0 0 0.76,0.27 z m 0,-4.39 a 0.92,0.92 0 0 0 -0.63,0.23 0.91,0.91 0 0 0 0,1.24 1,1 0 0 0 1.27,0 0.88,0.88 0 0 0 0,-1.24 0.91,0.91 0 0 0 -0.64,-0.18 z"
   fill="#ffffff"
   id="path572" /><path
   d="m 534.29269,616.48957 a 3.55,3.55 0 0 0 0.57,0 2.35,2.35 0 0 0 0.49,-0.16 1.32,1.32 0 0 0 0.37,-0.29 0.83,0.83 0 0 0 0.21,-0.43 h 0.74 v 5.6 h -1 v -4 h -1.38 z"
   fill="#ffffff"
   id="path574" /><path
   d="m 539.61269,619.73957 a 0.83,0.83 0 0 0 0.25,0.56 0.77,0.77 0 0 0 0.57,0.21 0.87,0.87 0 0 0 0.59,-0.19 1.44,1.44 0 0 0 0.34,-0.49 2.53,2.53 0 0 0 0.16,-0.63 c 0,-0.22 0,-0.42 0.07,-0.61 v 0 a 1.33,1.33 0 0 1 -0.5,0.5 1.52,1.52 0 0 1 -0.71,0.17 1.89,1.89 0 0 1 -0.72,-0.14 1.68,1.68 0 0 1 -0.56,-0.38 1.83,1.83 0 0 1 -0.36,-0.59 2.37,2.37 0 0 1 -0.12,-0.78 2.33,2.33 0 0 1 0.12,-0.76 1.84,1.84 0 0 1 0.38,-0.61 1.62,1.62 0 0 1 0.61,-0.4 2.09,2.09 0 0 1 0.81,-0.15 1.89,1.89 0 0 1 1,0.23 1.61,1.61 0 0 1 0.61,0.63 2.75,2.75 0 0 1 0.3,0.93 7,7 0 0 1 0.09,1.15 4.4,4.4 0 0 1 -0.11,1 3.14,3.14 0 0 1 -0.35,0.93 2.15,2.15 0 0 1 -0.65,0.69 1.77,1.77 0 0 1 -1,0.26 1.61,1.61 0 0 1 -0.63,-0.11 1.65,1.65 0 0 1 -0.53,-0.31 1.62,1.62 0 0 1 -0.37,-0.48 1.47,1.47 0 0 1 -0.16,-0.63 z m 0.87,-3.54 a 1,1 0 0 0 -0.43,0.1 0.81,0.81 0 0 0 -0.3,0.25 1.16,1.16 0 0 0 -0.18,0.37 1.54,1.54 0 0 0 -0.06,0.43 1.56,1.56 0 0 0 0.06,0.44 1.11,1.11 0 0 0 0.18,0.38 1.08,1.08 0 0 0 0.3,0.26 1,1 0 0 0 0.43,0.1 0.88,0.88 0 0 0 0.45,-0.1 0.82,0.82 0 0 0 0.32,-0.26 1.13,1.13 0 0 0 0.19,-0.38 1.56,1.56 0 0 0 0.06,-0.44 1.54,1.54 0 0 0 -0.06,-0.43 1.18,1.18 0 0 0 -0.19,-0.37 0.89,0.89 0 0 0 -0.32,-0.25 1,1 0 0 0 -0.45,-0.09 z"
   fill="#ffffff"
   id="path576" /><path
   d="m 566.63269,621.20957 h -3.83 a 2.26,2.26 0 0 1 0.34,-1.22 3,3 0 0 1 0.89,-0.9 l 0.57,-0.39 a 4.56,4.56 0 0 0 0.55,-0.4 2.17,2.17 0 0 0 0.4,-0.47 1,1 0 0 0 0.17,-0.58 2,2 0 0 0 0,-0.33 1.3,1.3 0 0 0 -0.14,-0.32 0.76,0.76 0 0 0 -0.29,-0.24 1,1 0 0 0 -0.48,-0.11 0.92,0.92 0 0 0 -0.46,0.11 0.81,0.81 0 0 0 -0.28,0.3 1.21,1.21 0 0 0 -0.16,0.44 2.53,2.53 0 0 0 -0.06,0.56 h -0.92 a 2.63,2.63 0 0 1 0.13,-0.86 1.77,1.77 0 0 1 0.37,-0.69 1.79,1.79 0 0 1 0.6,-0.45 2.18,2.18 0 0 1 1.69,0 1.64,1.64 0 0 1 0.56,0.43 1.56,1.56 0 0 1 0.3,0.55 2,2 0 0 1 0.08,0.58 1.74,1.74 0 0 1 -0.1,0.61 2.06,2.06 0 0 1 -0.28,0.5 3.16,3.16 0 0 1 -0.4,0.42 l -0.46,0.36 -0.49,0.32 -0.44,0.3 a 2.83,2.83 0 0 0 -0.36,0.32 0.78,0.78 0 0 0 -0.2,0.35 h 2.73 z"
   fill="#ffffff"
   id="path578" /><path
   d="m 569.16269,615.43957 a 1.7,1.7 0 0 1 1,0.28 1.86,1.86 0 0 1 0.59,0.71 3.13,3.13 0 0 1 0.29,0.94 7,7 0 0 1 0,2 3.13,3.13 0 0 1 -0.29,0.94 1.94,1.94 0 0 1 -0.59,0.71 1.7,1.7 0 0 1 -1,0.27 1.67,1.67 0 0 1 -1,-0.27 1.94,1.94 0 0 1 -0.59,-0.71 3.13,3.13 0 0 1 -0.29,-0.94 7,7 0 0 1 0,-2 3.13,3.13 0 0 1 0.29,-0.94 1.86,1.86 0 0 1 0.59,-0.71 1.67,1.67 0 0 1 1,-0.28 z m 0,5.07 a 0.71,0.71 0 0 0 0.5,-0.17 1.22,1.22 0 0 0 0.32,-0.46 2.69,2.69 0 0 0 0.16,-0.69 6.91,6.91 0 0 0 0,-1.66 2.52,2.52 0 0 0 -0.16,-0.68 1.18,1.18 0 0 0 -0.32,-0.47 0.71,0.71 0 0 0 -0.5,-0.18 0.73,0.73 0 0 0 -0.5,0.18 1.17,1.17 0 0 0 -0.31,0.47 2.52,2.52 0 0 0 -0.16,0.68 6.91,6.91 0 0 0 0,1.66 2.69,2.69 0 0 0 0.16,0.69 1.2,1.2 0 0 0 0.31,0.46 0.72,0.72 0 0 0 0.5,0.17 z"
   fill="#ffffff"
   id="path580" /><path
   d="m 595.78269,621.20957 h -3.82 a 2.25,2.25 0 0 1 0.33,-1.22 3.21,3.21 0 0 1 0.9,-0.9 l 0.57,-0.39 a 4.44,4.44 0 0 0 0.54,-0.4 2.23,2.23 0 0 0 0.41,-0.47 1.13,1.13 0 0 0 0.17,-0.58 1.35,1.35 0 0 0 0,-0.33 0.83,0.83 0 0 0 -0.14,-0.32 0.7,0.7 0 0 0 -0.29,-0.24 1,1 0 0 0 -0.48,-0.11 0.88,0.88 0 0 0 -0.45,0.11 0.83,0.83 0 0 0 -0.29,0.3 1.75,1.75 0 0 0 -0.16,0.44 4.8,4.8 0 0 0 -0.06,0.56 h -0.91 a 2.93,2.93 0 0 1 0.12,-0.86 1.92,1.92 0 0 1 0.38,-0.69 1.69,1.69 0 0 1 0.6,-0.45 2,2 0 0 1 0.83,-0.17 2,2 0 0 1 0.86,0.17 1.6,1.6 0 0 1 0.55,0.43 1.56,1.56 0 0 1 0.3,0.55 2.05,2.05 0 0 1 0.09,0.58 1.74,1.74 0 0 1 -0.1,0.61 2.46,2.46 0 0 1 -0.28,0.5 3.16,3.16 0 0 1 -0.4,0.42 l -0.47,0.36 -0.48,0.32 c -0.16,0.1 -0.31,0.2 -0.44,0.3 a 2.27,2.27 0 0 0 -0.36,0.32 0.91,0.91 0 0 0 -0.21,0.35 h 2.73 z"
   fill="#ffffff"
   id="path582" /><path
   d="m 596.52269,616.48957 a 3.43,3.43 0 0 0 0.56,0 2.17,2.17 0 0 0 0.49,-0.16 1.37,1.37 0 0 0 0.38,-0.29 0.9,0.9 0 0 0 0.2,-0.43 h 0.75 v 5.6 h -1 v -4 h -1.38 z"
   fill="#ffffff"
   id="path584" /><path
   d="m 2.6526948,579.59957 a 3.43,3.43 0 0 0 0.56,0 1.76,1.76 0 0 0 0.49,-0.16 1.37,1.37 0 0 0 0.38,-0.29 0.9,0.9 0 0 0 0.2,-0.43 h 0.75 v 5.6 h -1 v -3.95 h -1.38 z"
   fill="#ffffff"
   id="path598" /><path
   d="m 7.1726948,555.92957 h -3.78 a 2.23,2.23 0 0 1 0.33,-1.22 3.11,3.11 0 0 1 0.9,-0.91 c 0.18,-0.13 0.37,-0.26 0.57,-0.38 a 3.83,3.83 0 0 0 0.54,-0.41 2,2 0 0 0 0.41,-0.47 1.13,1.13 0 0 0 0.17,-0.58 1.22,1.22 0 0 0 0,-0.32 0.77,0.77 0 0 0 -0.14,-0.32 0.85,0.85 0 0 0 -0.28,-0.25 1,1 0 0 0 -0.49,-0.1 0.88,0.88 0 0 0 -0.45,0.11 0.89,0.89 0 0 0 -0.29,0.29 1.83,1.83 0 0 0 -0.16,0.45 4.41,4.41 0 0 0 -0.06,0.55 h -0.99 a 2.63,2.63 0 0 1 0.13,-0.86 1.8,1.8 0 0 1 0.37,-0.68 1.61,1.61 0 0 1 0.6,-0.46 2,2 0 0 1 0.84,-0.16 2,2 0 0 1 0.86,0.17 1.58,1.58 0 0 1 0.55,0.42 1.33,1.33 0 0 1 0.3,0.56 2,2 0 0 1 0.09,0.57 1.7,1.7 0 0 1 -0.1,0.61 1.89,1.89 0 0 1 -0.28,0.5 3.16,3.16 0 0 1 -0.4,0.42 5.32,5.32 0 0 1 -0.47,0.36 l -0.48,0.32 c -0.16,0.1 -0.31,0.2 -0.44,0.3 a 2.91,2.91 0 0 0 -0.36,0.32 1,1 0 0 0 -0.21,0.35 h 2.72 z"
   fill="#ffffff"
   id="path600" /><path
   d="m 4.8626948,524.29957 a 2.28,2.28 0 0 0 0.45,0 1.06,1.06 0 0 0 0.4,-0.14 0.66,0.66 0 0 0 0.28,-0.27 0.85,0.85 0 0 0 -0.13,-1 0.91,0.91 0 0 0 -0.63,-0.22 0.82,0.82 0 0 0 -0.42,0.1 0.8,0.8 0 0 0 -0.29,0.26 1.14,1.14 0 0 0 -0.17,0.37 1.16,1.16 0 0 0 0,0.42 h -0.96 a 2.33,2.33 0 0 1 0.15,-0.76 1.84,1.84 0 0 1 0.37,-0.6 1.64,1.64 0 0 1 0.57,-0.4 1.87,1.87 0 0 1 0.76,-0.15 2.05,2.05 0 0 1 0.65,0.1 1.89,1.89 0 0 1 0.57,0.28 1.31,1.31 0 0 1 0.4,0.47 1.36,1.36 0 0 1 0.15,0.65 1.38,1.38 0 0 1 -0.19,0.74 1.14,1.14 0 0 1 -0.6,0.46 v 0 a 1.15,1.15 0 0 1 0.75,0.47 1.57,1.57 0 0 1 0.27,0.93 1.51,1.51 0 0 1 -0.16,0.71 1.63,1.63 0 0 1 -0.43,0.54 2.07,2.07 0 0 1 -0.64,0.34 2.37,2.37 0 0 1 -0.76,0.12 2.23,2.23 0 0 1 -0.85,-0.14 1.51,1.51 0 0 1 -0.61,-0.4 1.56,1.56 0 0 1 -0.37,-0.61 2.53,2.53 0 0 1 -0.14,-0.8 h 0.92 a 1.26,1.26 0 0 0 0.25,0.85 1,1 0 0 0 0.8,0.34 1.18,1.18 0 0 0 0.77,-0.26 0.93,0.93 0 0 0 0.31,-0.74 1,1 0 0 0 -0.13,-0.52 0.79,0.79 0 0 0 -0.34,-0.29 1.36,1.36 0 0 0 -0.47,-0.13 4.64,4.64 0 0 0 -0.53,0 z"
   fill="#ffffff"
   id="path602" /><path
   d="m 7.2126948,497.89957 h -0.72 v 1.31 h -0.86 v -1.33 h -2.4 v -0.9 l 2.4,-3.37 h 0.86 v 3.6 h 0.72 z m -3.28,-0.69 h 1.7 v -2.46 0 z"
   fill="#ffffff"
   id="path604" /><path
   d="m 4.0226948,465.27957 h 2.9 v 0.82 h -2.22 l -0.31,1.42 v 0 a 1.23,1.23 0 0 1 0.47,-0.32 1.58,1.58 0 0 1 0.56,-0.1 1.79,1.79 0 0 1 0.75,0.14 1.53,1.53 0 0 1 0.55,0.39 1.82,1.82 0 0 1 0.34,0.59 2.27,2.27 0 0 1 0.11,0.75 2.45,2.45 0 0 1 -0.1,0.69 2,2 0 0 1 -0.35,0.65 1.77,1.77 0 0 1 -0.6,0.48 1.87,1.87 0 0 1 -0.88,0.19 2.58,2.58 0 0 1 -0.76,-0.11 1.78,1.78 0 0 1 -0.61,-0.32 1.49,1.49 0 0 1 -0.42,-0.54 1.83,1.83 0 0 1 -0.18,-0.74 h 0.92 a 1,1 0 0 0 0.31,0.7 1,1 0 0 0 0.72,0.25 1,1 0 0 0 0.49,-0.1 0.82,0.82 0 0 0 0.32,-0.26 1,1 0 0 0 0.18,-0.39 2.44,2.44 0 0 0 0,-0.48 1.63,1.63 0 0 0 -0.06,-0.45 1.43,1.43 0 0 0 -0.19,-0.37 1,1 0 0 0 -0.34,-0.26 1.13,1.13 0 0 0 -0.47,-0.09 1.33,1.33 0 0 0 -0.54,0.1 0.72,0.72 0 0 0 -0.37,0.41 h -0.85 z"
   fill="#ffffff"
   id="path606" /><path
   d="m 5.9326948,438.34957 a 0.81,0.81 0 0 0 -0.25,-0.55 0.74,0.74 0 0 0 -0.57,-0.22 0.85,0.85 0 0 0 -0.43,0.1 0.89,0.89 0 0 0 -0.3,0.24 1.33,1.33 0 0 0 -0.2,0.35 c 0,0.13 -0.09,0.27 -0.13,0.41 a 3.18,3.18 0 0 0 -0.06,0.43 c 0,0.14 0,0.27 0,0.4 v 0 a 1.2,1.2 0 0 1 0.5,-0.5 1.54,1.54 0 0 1 0.71,-0.16 1.78,1.78 0 0 1 0.74,0.14 1.74,1.74 0 0 1 0.56,0.4 1.82,1.82 0 0 1 0.34,0.59 2.27,2.27 0 0 1 0.12,0.75 2.13,2.13 0 0 1 -0.13,0.76 1.71,1.71 0 0 1 -0.38,0.6 1.65,1.65 0 0 1 -0.59,0.41 1.87,1.87 0 0 1 -0.76,0.14 1.91,1.91 0 0 1 -1,-0.23 1.63,1.63 0 0 1 -0.63,-0.62 2.55,2.55 0 0 1 -0.31,-0.93 6.88,6.88 0 0 1 -0.09,-1.15 4.55,4.55 0 0 1 0.11,-1 3.14,3.14 0 0 1 0.35,-0.93 2,2 0 0 1 0.65,-0.68 1.78,1.78 0 0 1 1,-0.27 1.61,1.61 0 0 1 0.63,0.12 1.48,1.48 0 0 1 0.53,0.31 1.62,1.62 0 0 1 0.37,0.48 1.39,1.39 0 0 1 0.16,0.62 z m -0.88,3.54 a 0.85,0.85 0 0 0 0.43,-0.1 0.86,0.86 0 0 0 0.31,-0.26 1.06,1.06 0 0 0 0.18,-0.37 1.61,1.61 0 0 0 0.06,-0.44 1.54,1.54 0 0 0 -0.06,-0.43 1,1 0 0 0 -0.18,-0.36 1,1 0 0 0 -0.31,-0.26 1,1 0 0 0 -0.43,-0.09 1,1 0 0 0 -0.44,0.09 1,1 0 0 0 -0.32,0.25 1.23,1.23 0 0 0 -0.19,0.36 1.61,1.61 0 0 0 -0.06,0.44 1.33,1.33 0 0 0 0.25,0.82 1.14,1.14 0 0 0 0.32,0.26 1,1 0 0 0 0.44,0.09 z"
   fill="#ffffff"
   id="path608" /><path
   d="m 3.3126948,408.58957 h 3.84 v 0.76 a 9.8,9.8 0 0 0 -0.8,1 7.28,7.28 0 0 0 -0.63,1.13 8.13,8.13 0 0 0 -0.44,1.26 8.79,8.79 0 0 0 -0.22,1.47 h -1 a 6.54,6.54 0 0 1 0.23,-1.31 8.27,8.27 0 0 1 0.46,-1.26 9.7,9.7 0 0 1 0.64,-1.19 9.31,9.31 0 0 1 0.81,-1 h -2.89 z"
   fill="#ffffff"
   id="path610" /><path
   d="m 5.2626948,385.95957 a 2.52,2.52 0 0 1 -0.79,-0.12 1.93,1.93 0 0 1 -0.63,-0.35 1.66,1.66 0 0 1 -0.41,-0.56 1.7,1.7 0 0 1 -0.15,-0.73 1.45,1.45 0 0 1 0.28,-0.89 1.3,1.3 0 0 1 0.75,-0.48 v 0 a 1.16,1.16 0 0 1 -0.59,-0.44 1.21,1.21 0 0 1 -0.2,-0.71 1.45,1.45 0 0 1 0.45,-1.13 1.91,1.91 0 0 1 1.29,-0.4 1.91,1.91 0 0 1 1.29,0.4 1.42,1.42 0 0 1 0.46,1.13 1.21,1.21 0 0 1 -0.21,0.71 1.12,1.12 0 0 1 -0.59,0.44 v 0 a 1.3,1.3 0 0 1 0.75,0.48 1.39,1.39 0 0 1 0.28,0.89 1.7,1.7 0 0 1 -0.15,0.73 1.66,1.66 0 0 1 -0.41,0.56 1.93,1.93 0 0 1 -0.63,0.35 2.52,2.52 0 0 1 -0.79,0.12 z m 0,-0.72 a 1.1,1.1 0 0 0 0.76,-0.27 1,1 0 0 0 0.31,-0.77 0.94,0.94 0 0 0 -0.31,-0.73 1.15,1.15 0 0 0 -0.76,-0.26 1.15,1.15 0 0 0 -0.76,0.26 0.93,0.93 0 0 0 -0.3,0.73 1,1 0 0 0 0.3,0.77 1.1,1.1 0 0 0 0.76,0.24 z m 0,-4.39 a 0.91,0.91 0 0 0 -0.62,0.22 0.81,0.81 0 0 0 -0.26,0.64 0.75,0.75 0 0 0 0.25,0.61 0.92,0.92 0 0 0 0.63,0.21 0.92,0.92 0 0 0 0.63,-0.21 0.75,0.75 0 0 0 0.25,-0.61 0.8,0.8 0 0 0 -0.25,-0.64 0.93,0.93 0 0 0 -0.63,-0.22 z"
   fill="#ffffff"
   id="path612" /><path
   d="m 4.3226948,356.07957 a 0.94,0.94 0 0 0 0.25,0.56 0.77,0.77 0 0 0 0.57,0.21 0.85,0.85 0 0 0 0.59,-0.19 1.31,1.31 0 0 0 0.34,-0.49 2.53,2.53 0 0 0 0.16,-0.63 c 0,-0.22 0.06,-0.42 0.07,-0.61 v 0 a 1.44,1.44 0 0 1 -0.51,0.5 1.51,1.51 0 0 1 -0.7,0.17 1.9,1.9 0 0 1 -0.73,-0.14 1.64,1.64 0 0 1 -0.55,-0.38 1.54,1.54 0 0 1 -0.36,-0.59 2.13,2.13 0 0 1 -0.13,-0.78 2.09,2.09 0 0 1 0.13,-0.76 1.82,1.82 0 0 1 0.37,-0.61 1.7,1.7 0 0 1 0.61,-0.4 2.1,2.1 0 0 1 0.82,-0.15 1.88,1.88 0 0 1 1,0.23 1.61,1.61 0 0 1 0.61,0.63 3,3 0 0 1 0.31,0.93 7,7 0 0 1 0.08,1.15 5,5 0 0 1 -0.1,1 3.16,3.16 0 0 1 -0.36,0.93 2.15,2.15 0 0 1 -0.65,0.69 1.75,1.75 0 0 1 -1,0.26 1.67,1.67 0 0 1 -0.63,-0.11 1.76,1.76 0 0 1 -0.53,-0.31 1.55,1.55 0 0 1 -0.59,-1.11 z m 0.88,-3.54 a 1,1 0 0 0 -0.44,0.1 0.81,0.81 0 0 0 -0.3,0.25 1.16,1.16 0 0 0 -0.18,0.37 1.54,1.54 0 0 0 -0.06,0.43 1.56,1.56 0 0 0 0.06,0.44 1.11,1.11 0 0 0 0.18,0.38 1.08,1.08 0 0 0 0.3,0.26 1,1 0 0 0 0.44,0.1 0.93,0.93 0 0 0 0.45,-0.1 0.86,0.86 0 0 0 0.31,-0.26 1.13,1.13 0 0 0 0.19,-0.38 1.56,1.56 0 0 0 0.06,-0.44 1.54,1.54 0 0 0 -0.06,-0.43 1.18,1.18 0 0 0 -0.19,-0.37 1,1 0 0 0 -0.31,-0.25 1.06,1.06 0 0 0 -0.45,-0.1 z"
   fill="#ffffff"
   id="path614" /><path
   d="m 2.6526948,324.47957 a 3.43,3.43 0 0 0 0.56,0 1.49,1.49 0 0 0 0.49,-0.16 1.2,1.2 0 0 0 0.38,-0.29 0.9,0.9 0 0 0 0.2,-0.43 h 0.75 v 5.6 h -1 v -3.99 h -1.38 z"
   fill="#ffffff"
   id="path616" /><path
   d="m 8.9026948,323.43957 a 1.65,1.65 0 0 1 1,0.27 1.87,1.87 0 0 1 0.6000012,0.71 3.44,3.44 0 0 1 0.29,0.94 6.78,6.78 0 0 1 0.07,1 7,7 0 0 1 -0.07,1 3.55,3.55 0 0 1 -0.29,0.94 1.84,1.84 0 0 1 -0.6000012,0.7 1.65,1.65 0 0 1 -1,0.28 1.67,1.67 0 0 1 -1,-0.28 1.91,1.91 0 0 1 -0.59,-0.7 3.22,3.22 0 0 1 -0.29,-0.94 7,7 0 0 1 -0.07,-1 6.78,6.78 0 0 1 0.07,-1 3.13,3.13 0 0 1 0.29,-0.94 1.94,1.94 0 0 1 0.59,-0.71 1.67,1.67 0 0 1 1,-0.27 z m 0,5.07 a 0.71,0.71 0 0 0 0.5,-0.18 1.15,1.15 0 0 0 0.32,-0.46 3.09,3.09 0 0 0 0.16,-0.68 7.44,7.44 0 0 0 0,-0.84 7.26,7.26 0 0 0 0,-0.83 3.09,3.09 0 0 0 -0.16,-0.68 1.26,1.26 0 0 0 -0.32,-0.47 0.82,0.82 0 0 0 -1,0 1.24,1.24 0 0 0 -0.31,0.47 2.61,2.61 0 0 0 -0.16,0.68 5.53,5.53 0 0 0 0,0.83 5.66,5.66 0 0 0 0,0.84 2.61,2.61 0 0 0 0.16,0.68 1.13,1.13 0 0 0 0.31,0.46 0.71,0.71 0 0 0 0.5,0.18 z"
   fill="#ffffff"
   id="path618" /><path
   d="m 2.6526948,296.12957 a 2.59,2.59 0 0 0 0.56,-0.05 1.49,1.49 0 0 0 0.49,-0.16 1.34,1.34 0 0 0 0.38,-0.28 0.94,0.94 0 0 0 0.2,-0.44 h 0.75 v 5.61 h -1 v -4 h -1.38 z"
   fill="#ffffff"
   id="path620" /><path
   d="m 7.1026948,296.12957 a 2.59,2.59 0 0 0 0.56,-0.05 1.49,1.49 0 0 0 0.49,-0.16 1.21,1.21 0 0 0 0.38,-0.28 1,1 0 0 0 0.21,-0.44 h 0.74 v 5.61 h -1 v -4 h -1.38 z"
   fill="#ffffff"
   id="path622" /><path
   d="m 2.6526948,267.78957 a 3.43,3.43 0 0 0 0.56,-0.05 1.76,1.76 0 0 0 0.49,-0.16 1.37,1.37 0 0 0 0.38,-0.29 0.9,0.9 0 0 0 0.2,-0.43 h 0.75 v 5.6 h -1 v -3.95 h -1.38 z"
   fill="#ffffff"
   id="path624" /><path
   d="M 10.822697,272.45957 H 6.9926948 a 2.2,2.2 0 0 1 0.34,-1.25 3,3 0 0 1 0.89,-0.91 l 0.57,-0.39 a 4.56,4.56 0 0 0 0.55,-0.4 2.17,2.17 0 0 0 0.4,-0.47 1,1 0 0 0 0.17,-0.58 2,2 0 0 0 0,-0.33 1,1 0 0 0 -0.14,-0.32 0.87,0.87 0 0 0 -0.29,-0.24 1,1 0 0 0 -0.48,-0.1 0.88,0.88 0 0 0 -0.45,0.1 0.83,0.83 0 0 0 -0.29,0.3 1.21,1.21 0 0 0 -0.16,0.44 2.53,2.53 0 0 0 -0.06,0.56 h -0.95 a 2.63,2.63 0 0 1 0.13,-0.86 1.77,1.77 0 0 1 0.37,-0.69 1.89,1.89 0 0 1 0.6,-0.45 2.18,2.18 0 0 1 1.69,0 1.64,1.64 0 0 1 0.5600012,0.43 1.56,1.56 0 0 1 0.3,0.55 2.05,2.05 0 0 1 0.09,0.58 1.74,1.74 0 0 1 -0.11,0.61 2.06,2.06 0 0 1 -0.280001,0.5 3.16,3.16 0 0 1 -0.400001,0.42 l -0.4599996,0.36 -0.48,0.32 -0.45,0.3 a 3.73,3.73 0 0 0 -0.36,0.32 0.78,0.78 0 0 0 -0.2,0.35 h 2.7300016 z"
   fill="#ffffff"
   id="path626" /><path
   d="m 2.6526948,239.43957 a 3.43,3.43 0 0 0 0.56,0 1.49,1.49 0 0 0 0.49,-0.16 1.2,1.2 0 0 0 0.38,-0.29 0.86,0.86 0 0 0 0.2,-0.43 h 0.75 v 5.61 h -1 v -4 h -1.38 z"
   fill="#ffffff"
   id="path628" /><path
   d="m 8.5026948,240.82957 a 1.71,1.71 0 0 0 0.45,0 1.26,1.26 0 0 0 0.4,-0.14 0.86,0.86 0 0 0 0.29,-0.28 0.81,0.81 0 0 0 0.1,-0.43 0.72,0.72 0 0 0 -0.24,-0.57 0.88,0.88 0 0 0 -0.63,-0.22 0.76,0.76 0 0 0 -0.41,0.1 0.91,0.91 0 0 0 -0.3,0.25 1.56,1.56 0 0 0 -0.17,0.37 1.51,1.51 0 0 0 0,0.42 h -0.96 a 2.27,2.27 0 0 1 0.15,-0.75 2,2 0 0 1 0.37,-0.61 1.72,1.72 0 0 1 0.58,-0.4 2,2 0 0 1 0.76,-0.14 2.3,2.3 0 0 1 0.64,0.09 2.16,2.16 0 0 1 0.5700002,0.28 1.39,1.39 0 0 1 0.400001,0.47 1.29,1.29 0 0 1 0.16,0.66 1.41,1.41 0 0 1 -0.2,0.74 1.06,1.06 0 0 1 -0.6000012,0.46 v 0 a 1.21,1.21 0 0 1 0.7500012,0.48 1.7,1.7 0 0 1 0.11,1.64 1.74,1.74 0 0 1 -0.430001,0.54 2.12,2.12 0 0 1 -0.6300002,0.34 2.42,2.42 0 0 1 -0.76,0.12 2.5,2.5 0 0 1 -0.86,-0.14 1.85,1.85 0 0 1 -0.61,-0.4 1.83,1.83 0 0 1 -0.37,-0.62 2.48,2.48 0 0 1 -0.13,-0.8 h 0.91 a 1.28,1.28 0 0 0 0.25,0.86 1,1 0 0 0 0.81,0.34 1.17,1.17 0 0 0 0.76,-0.26 0.91,0.91 0 0 0 0.31,-0.74 0.87,0.87 0 0 0 -0.13,-0.52 0.89,0.89 0 0 0 -0.34,-0.3 1.55,1.55 0 0 0 -0.46,-0.12 4.87,4.87 0 0 0 -0.54,0 z"
   fill="#ffffff"
   id="path630" /><path
   d="m 2.6526948,211.08957 a 2.59,2.59 0 0 0 0.56,0 1.49,1.49 0 0 0 0.49,-0.16 1.34,1.34 0 0 0 0.38,-0.28 0.94,0.94 0 0 0 0.2,-0.44 h 0.75 v 5.61 h -1 v -4 h -1.38 z"
   fill="#ffffff"
   id="path632" /><path
   d="m 10.862697,214.43957 h -0.720002 v 1.33 H 9.2726948 v -1.33 h -2.4 v -0.91 l 2.4,-3.32 h 0.8700002 v 3.56 h 0.720002 z m -3.2900022,-0.72 h 1.7 v -2.51 0 z"
   fill="#ffffff"
   id="path634" /><path
   d="m 2.6526948,182.74957 a 3.43,3.43 0 0 0 0.56,0 1.76,1.76 0 0 0 0.49,-0.16 1.37,1.37 0 0 0 0.38,-0.29 0.9,0.9 0 0 0 0.2,-0.43 h 0.75 v 5.6 h -1 v -4 h -1.38 z"
   fill="#ffffff"
   id="path636" /><path
   d="m 7.6626948,181.81957 h 2.9000012 v 0.81 H 8.3926948 l -0.29,1.43 v 0 a 1.13,1.13 0 0 1 0.47,-0.32 1.64,1.64 0 0 1 0.56,-0.11 2,2 0 0 1 0.75,0.14 1.57,1.57 0 0 1 0.5100012,0.44 1.77,1.77 0 0 1 0.34,0.6 2.27,2.27 0 0 1 0.120001,0.75 2.48,2.48 0 0 1 -0.110001,0.69 2,2 0 0 1 -0.35,0.65 1.82,1.82 0 0 1 -0.6000012,0.48 2,2 0 0 1 -0.88,0.18 2.68,2.68 0 0 1 -0.76,-0.1 1.89,1.89 0 0 1 -0.61,-0.33 1.46,1.46 0 0 1 -0.42,-0.53 1.87,1.87 0 0 1 -0.17,-0.74 h 0.91 a 0.94,0.94 0 0 0 1,0.94 1.16,1.16 0 0 0 0.49,-0.09 0.87,0.87 0 0 0 0.33,-0.27 1,1 0 0 0 0.17,-0.39 1.86,1.86 0 0 0 0.05,-0.48 1.61,1.61 0 0 0 -0.06,-0.44 1.13,1.13 0 0 0 -0.19,-0.38 1,1 0 0 0 -0.33,-0.25 1.06,1.06 0 0 0 -0.48,-0.1 1.41,1.41 0 0 0 -0.54,0.11 0.7,0.7 0 0 0 -0.37,0.4 h -0.87 z"
   fill="#ffffff"
   id="path638" /><path
   d="m 2.6526948,154.39957 a 3.43,3.43 0 0 0 0.56,0 1.49,1.49 0 0 0 0.49,-0.16 1.2,1.2 0 0 0 0.38,-0.29 0.86,0.86 0 0 0 0.2,-0.43 h 0.75 v 5.61 h -1 v -4 h -1.38 z"
   fill="#ffffff"
   id="path640" /><path
   d="m 9.8426948,154.88957 a 0.87,0.87 0 0 0 -0.24,-0.56 0.81,0.81 0 0 0 -0.58,-0.21 0.93,0.93 0 0 0 -0.42,0.09 0.84,0.84 0 0 0 -0.31,0.25 1.27,1.27 0 0 0 -0.2,0.34 2.9,2.9 0 0 0 -0.12,0.42 2,2 0 0 0 -0.07,0.42 c 0,0.15 0,0.28 0,0.4 v 0 a 1.12,1.12 0 0 1 0.51,-0.5 1.51,1.51 0 0 1 0.7,-0.17 1.75,1.75 0 0 1 0.74,0.15 1.49,1.49 0 0 1 0.5600012,0.39 1.79,1.79 0 0 1 0.35,0.6 2.25,2.25 0 0 1 0.120001,0.74 2.28,2.28 0 0 1 -0.130001,0.76 1.77,1.77 0 0 1 -0.39,0.61 1.62,1.62 0 0 1 -0.5900012,0.4 1.87,1.87 0 0 1 -0.76,0.15 2,2 0 0 1 -1,-0.23 1.7,1.7 0 0 1 -0.63,-0.62 2.91,2.91 0 0 1 -0.31,-0.93 7,7 0 0 1 -0.09,-1.15 5.05,5.05 0 0 1 0.11,-1 3.14,3.14 0 0 1 0.3,-0.93 2.18,2.18 0 0 1 0.66,-0.69 1.82,1.82 0 0 1 1,-0.26 1.91,1.91 0 0 1 0.64,0.11 1.94,1.94 0 0 1 0.5200002,0.31 1.72,1.72 0 0 1 0.370001,0.48 1.47,1.47 0 0 1 0.16,0.63 z m -0.88,3.54 a 0.94,0.94 0 0 0 0.43,-0.1 1.13,1.13 0 0 0 0.31,-0.26 1.16,1.16 0 0 0 0.18,-0.37 1.67,1.67 0 0 0 0.06,-0.44 1.54,1.54 0 0 0 -0.06,-0.43 1.16,1.16 0 0 0 -0.18,-0.37 0.94,0.94 0 0 0 -0.74,-0.35 0.89,0.89 0 0 0 -0.44,0.1 0.92,0.92 0 0 0 -0.31,0.24 1.2,1.2 0 0 0 -0.2,0.37 1.56,1.56 0 0 0 -0.06,0.44 1.61,1.61 0 0 0 0.06,0.44 1.2,1.2 0 0 0 0.2,0.37 0.86,0.86 0 0 0 0.31,0.26 0.89,0.89 0 0 0 0.44,0.1 z"
   fill="#ffffff"
   id="path642" /><path
   d="m 2.6526948,126.04957 a 3.43,3.43 0 0 0 0.56,0 1.77,1.77 0 0 0 0.49,-0.17 1.34,1.34 0 0 0 0.38,-0.28 0.89,0.89 0 0 0 0.2,-0.44 h 0.75 v 5.61 h -1 v -4 h -1.38 z"
   fill="#ffffff"
   id="path644" /><path
   d="m 6.9626948,125.11957 h 3.8300012 v 0.76 a 12.43,12.43 0 0 0 -0.8000012,1 8.34,8.34 0 0 0 -0.6,1.16 8.49,8.49 0 0 0 -0.43,1.26 8.9,8.9 0 0 0 -0.23,1.43 h -1 a 6.54,6.54 0 0 1 0.23,-1.31 7.59,7.59 0 0 1 0.43,-1.21 6.75,6.75 0 0 1 0.66,-1.17 12.08,12.08 0 0 1 0.8,-1 h -2.89 z"
   fill="#ffffff"
   id="path646" /><path
   d="m 2.6526948,97.709569 a 3.43,3.43 0 0 0 0.56,0 1.76,1.76 0 0 0 0.49,-0.16 1.37,1.37 0 0 0 0.38,-0.34 0.9,0.9 0 0 0 0.2,-0.43 h 0.75 v 5.600001 h -1 v -4.000001 h -1.38 z"
   fill="#ffffff"
   id="path648" /><path
   d="m 8.9026948,102.49957 a 2.56,2.56 0 0 1 -0.79,-0.12 1.79,1.79 0 0 1 -0.62,-0.35 1.65,1.65 0 0 1 -0.42,-0.56 1.75,1.75 0 0 1 -0.14,-0.74 1.42,1.42 0 0 1 0.27,-0.880001 1.38,1.38 0 0 1 0.75,-0.49 v 0 a 1.23,1.23 0 0 1 -0.56,-0.46 1.25,1.25 0 0 1 -0.2,-0.7 1.45,1.45 0 0 1 0.45,-1.13 1.86,1.86 0 0 1 1.29,-0.4 1.89,1.89 0 0 1 1.3000002,0.4 1.45,1.45 0 0 1 0.420001,1.14 1.18,1.18 0 0 1 -0.21,0.7 1.2,1.2 0 0 1 -0.5800012,0.45 v 0 a 1.38,1.38 0 0 1 0.7500012,0.49 1.42,1.42 0 0 1 0.270001,0.880001 1.75,1.75 0 0 1 -0.150001,0.74 1.62,1.62 0 0 1 -0.410001,0.56 1.84,1.84 0 0 1 -0.6300002,0.35 2.47,2.47 0 0 1 -0.79,0.12 z m 0,-0.72 a 1.09,1.09 0 0 0 0.76,-0.28 1,1 0 0 0 0.31,-0.77 0.87,0.87 0 0 0 -0.31,-0.72 1.13,1.13 0 0 0 -0.76,-0.260001 1.17,1.17 0 0 0 -0.76,0.260001 0.89,0.89 0 0 0 -0.3,0.72 1,1 0 0 0 0.3,0.77 1.13,1.13 0 0 0 0.76,0.28 z m 0,-4.390001 a 0.91,0.91 0 0 0 -0.62,0.22 0.79,0.79 0 0 0 -0.26,0.63 0.8,0.8 0 0 0 0.25,0.62 1.07,1.07 0 0 0 1.27,0 0.8,0.8 0 0 0 0.24,-0.65 0.78,0.78 0 0 0 -0.25,-0.63 0.91,0.91 0 0 0 -0.63,-0.19 z"
   fill="#ffffff"
   id="path650" /><path
   d="m 2.6526948,69.359569 a 3.43,3.43 0 0 0 0.56,0 1.49,1.49 0 0 0 0.49,-0.16 1.2,1.2 0 0 0 0.38,-0.29 0.86,0.86 0 0 0 0.2,-0.43 h 0.75 v 5.61 h -1 v -4 h -1.38 z"
   fill="#ffffff"
   id="path652" /><path
   d="m 7.9726948,72.619569 a 0.9,0.9 0 0 0 0.24,0.56 0.77,0.77 0 0 0 0.57,0.21 0.84,0.84 0 0 0 0.61,-0.18 1.23,1.23 0 0 0 0.34,-0.49 2.46,2.46 0 0 0 0.17,-0.62 c 0,-0.22 0,-0.43 0.06,-0.61 v 0 a 1.17,1.17 0 0 1 -0.51,0.5 1.37,1.37 0 0 1 -0.7,0.17 1.9,1.9 0 0 1 -0.73,-0.13 1.64,1.64 0 0 1 -0.55,-0.38 1.58,1.58 0 0 1 -0.36,-0.6 2.13,2.13 0 0 1 -0.16,-0.84 2,2 0 0 1 0.13,-0.75 1.64,1.64 0 0 1 0.37,-0.61 1.73,1.73 0 0 1 0.61,-0.41 2.35,2.35 0 0 1 0.82,-0.14 2,2 0 0 1 1,0.23 1.7,1.7 0 0 1 0.6000012,0.62 2.89,2.89 0 0 1 0.31,0.94 6.76,6.76 0 0 1 0.07,1.12 5.05,5.05 0 0 1 -0.11,1 2.91,2.91 0 0 1 -0.360001,1 1.93,1.93 0 0 1 -0.6500006,0.68 1.76,1.76 0 0 1 -1,0.27 1.9,1.9 0 0 1 -0.63,-0.11 1.62,1.62 0 0 1 -0.52,-0.32 1.5,1.5 0 0 1 -0.38,-0.52 1.53,1.53 0 0 1 -0.16,-0.62 z m 0.87,-3.54 a 0.94,0.94 0 0 0 -0.45,0.13 0.86,0.86 0 0 0 -0.31,0.25 1.16,1.16 0 0 0 -0.18,0.37 1.64,1.64 0 0 0 0,0.88 1.06,1.06 0 0 0 0.18,0.37 0.79,0.79 0 0 0 0.31,0.26 0.83,0.83 0 0 0 0.43,0.1 1.06,1.06 0 0 0 0.45,-0.09 0.88,0.88 0 0 0 0.31,-0.26 1,1 0 0 0 0.19,-0.38 1.42,1.42 0 0 0 0,-0.88 0.89,0.89 0 0 0 -0.19,-0.36 0.76,0.76 0 0 0 -0.29,-0.26 0.93,0.93 0 0 0 -0.45,-0.13 z"
   fill="#ffffff"
   id="path654" /><path
   d="m 7.1726948,45.689569 h -3.78 a 2.25,2.25 0 0 1 0.33,-1.22 3.09,3.09 0 0 1 0.9,-0.9 l 0.53,-0.36 a 4.73,4.73 0 0 0 0.54,-0.4 2.23,2.23 0 0 0 0.41,-0.47 1.16,1.16 0 0 0 0.17,-0.58 1.29,1.29 0 0 0 0,-0.33 0.83,0.83 0 0 0 -0.14,-0.32 0.85,0.85 0 0 0 -0.28,-0.25 1.15,1.15 0 0 0 -0.49,-0.1 0.88,0.88 0 0 0 -0.45,0.11 0.84,0.84 0 0 0 -0.29,0.3 1.62,1.62 0 0 0 -0.16,0.44 4.63,4.63 0 0 0 -0.06,0.55 h -0.95 a 2.67,2.67 0 0 1 0.13,-0.86 1.8,1.8 0 0 1 0.37,-0.68 1.69,1.69 0 0 1 0.6,-0.45 2,2 0 0 1 0.84,-0.2 2,2 0 0 1 0.86,0.17 1.49,1.49 0 0 1 0.55,0.43 1.3,1.3 0 0 1 0.3,0.55 2,2 0 0 1 0.09,0.57 1.66,1.66 0 0 1 -0.1,0.61 1.89,1.89 0 0 1 -0.28,0.5 2.28,2.28 0 0 1 -0.42,0.41 5.32,5.32 0 0 1 -0.47,0.36 c -0.16,0.12 -0.32,0.22 -0.48,0.32 l -0.43,0.32 a 2.27,2.27 0 0 0 -0.36,0.32 0.88,0.88 0 0 0 -0.21,0.34 h 2.73 z"
   fill="#ffffff"
   id="path656" /><path
   d="m 9.7126948,39.969569 a 1.65,1.65 0 0 1 1.0000012,0.28 1.84,1.84 0 0 1 0.600001,0.7 3.21,3.21 0 0 1 0.28,0.94 5.85,5.85 0 0 1 0.08,1 5.66,5.66 0 0 1 -0.08,1 3.12,3.12 0 0 1 -0.28,0.94 1.87,1.87 0 0 1 -0.600001,0.71 1.65,1.65 0 0 1 -1.0000012,0.27 1.67,1.67 0 0 1 -1,-0.27 1.94,1.94 0 0 1 -0.59,-0.71 3.13,3.13 0 0 1 -0.29,-0.94 6.83,6.83 0 0 1 -0.08,-1 7.07,7.07 0 0 1 0.08,-1 3.22,3.22 0 0 1 0.29,-0.94 1.91,1.91 0 0 1 0.59,-0.7 1.67,1.67 0 0 1 1,-0.28 z m 0,5.07 a 0.76,0.76 0 0 0 0.5000002,-0.17 1.26,1.26 0 0 0 0.320001,-0.47 3,3 0 0 0 0.16,-0.68 7.26,7.26 0 0 0 0,-0.83 7.12,7.12 0 0 0 0,-0.83 3.19,3.19 0 0 0 -0.16,-0.69 1.22,1.22 0 0 0 -0.320001,-0.46 0.78,0.78 0 0 0 -1.0000002,0 1.2,1.2 0 0 0 -0.31,0.46 2.69,2.69 0 0 0 -0.16,0.69 5.45,5.45 0 0 0 0,0.83 5.53,5.53 0 0 0 0,0.83 2.52,2.52 0 0 0 0.16,0.68 1.24,1.24 0 0 0 0.31,0.47 0.76,0.76 0 0 0 0.5,0.17 z"
   fill="#ffffff"
   id="path658" /><path
   d="m 6.1126948,606.80957 a 1.58,1.58 0 0 1 1,0.28 1.91,1.91 0 0 1 0.59,0.7 3.22,3.22 0 0 1 0.29,0.94 6.83,6.83 0 0 1 0.08,1 7,7 0 0 1 -0.08,1 3.22,3.22 0 0 1 -0.29,0.94 1.91,1.91 0 0 1 -0.59,0.7 1.58,1.58 0 0 1 -1,0.28 1.58,1.58 0 0 1 -1,-0.28 1.91,1.91 0 0 1 -0.59,-0.7 3.22,3.22 0 0 1 -0.29,-0.94 7,7 0 0 1 -0.08,-1 6.83,6.83 0 0 1 0.08,-1 3.22,3.22 0 0 1 0.29,-0.94 1.91,1.91 0 0 1 0.59,-0.7 1.58,1.58 0 0 1 1,-0.28 z m 0,5.07 a 0.78,0.78 0 0 0 0.5,-0.17 1.14,1.14 0 0 0 0.31,-0.47 2.93,2.93 0 0 0 0.17,-0.68 7.39,7.39 0 0 0 0,-0.84 7,7 0 0 0 0,-0.82 3.17,3.17 0 0 0 -0.17,-0.69 1.14,1.14 0 0 0 -0.31,-0.47 0.78,0.78 0 0 0 -0.5,-0.17 0.76,0.76 0 0 0 -0.5,0.17 1.14,1.14 0 0 0 -0.31,0.47 3.17,3.17 0 0 0 -0.17,0.69 7,7 0 0 0 0,0.82 7.39,7.39 0 0 0 0,0.84 2.93,2.93 0 0 0 0.17,0.68 1.14,1.14 0 0 0 0.31,0.47 0.76,0.76 0 0 0 0.5,0.17 z"
   fill="#ffffff"
   id="path660" /><path
   d="m 378.10269,530.79957 a 8,8 0 0 1 3.44,0.72 7.6,7.6 0 0 1 2.58,1.95 8.78,8.78 0 0 1 1.62,2.85 10.85,10.85 0 0 1 0,6.94 8.67,8.67 0 0 1 -1.62,2.85 7.45,7.45 0 0 1 -2.58,1.94 8.71,8.71 0 0 1 -6.89,0 7.64,7.64 0 0 1 -2.58,-1.94 8.67,8.67 0 0 1 -1.62,-2.85 11,11 0 0 1 0,-6.94 8.78,8.78 0 0 1 1.62,-2.85 7.8,7.8 0 0 1 2.58,-1.95 8,8 0 0 1 3.45,-0.72 z m 0,2.45 a 4.94,4.94 0 0 0 -2.37,0.55 4.7,4.7 0 0 0 -1.62,1.48 6.87,6.87 0 0 0 -0.92,2.1 9.75,9.75 0 0 0 0,4.8 6.87,6.87 0 0 0 0.92,2.1 4.7,4.7 0 0 0 1.62,1.48 4.94,4.94 0 0 0 2.37,0.55 4.87,4.87 0 0 0 2.36,-0.55 4.7,4.7 0 0 0 1.62,-1.48 6.64,6.64 0 0 0 0.92,-2.1 9.45,9.45 0 0 0 0,-4.8 6.64,6.64 0 0 0 -0.92,-2.1 4.7,4.7 0 0 0 -1.62,-1.48 4.87,4.87 0 0 0 -2.36,-0.59 z"
   fill="#ffffff"
   id="path666" /><path
   d="m 389.04269,531.20957 h 8.18 a 6.32,6.32 0 0 1 4.25,1.23 4.23,4.23 0 0 1 1.42,3.4 5,5 0 0 1 -0.36,2 4.42,4.42 0 0 1 -0.84,1.3 3.4,3.4 0 0 1 -0.95,0.71 c -0.31,0.14 -0.54,0.23 -0.68,0.28 v 0.08 a 2.88,2.88 0 0 1 0.82,0.24 2.38,2.38 0 0 1 0.83,0.61 3.38,3.38 0 0 1 0.64,1.09 4.82,4.82 0 0 1 0.25,1.69 15.32,15.32 0 0 0 0.23,2.74 3.59,3.59 0 0 0 0.71,1.77 h -3.22 a 2.88,2.88 0 0 1 -0.4,-1.23 c 0,-0.44 -0.06,-0.88 -0.06,-1.29 a 12,12 0 0 0 -0.14,-2 3.57,3.57 0 0 0 -0.53,-1.42 2.18,2.18 0 0 0 -1,-0.82 4.53,4.53 0 0 0 -1.69,-0.27 h -4.42 v 7.06 h -3 z m 3,7.8 h 4.92 a 3.17,3.17 0 0 0 2.19,-0.68 2.68,2.68 0 0 0 0.74,-2.05 3.21,3.21 0 0 0 -0.24,-1.34 1.94,1.94 0 0 0 -0.66,-0.8 2.39,2.39 0 0 0 -1,-0.38 5.83,5.83 0 0 0 -1.12,-0.1 h -4.87 z"
   fill="#ffffff"
   id="path668" /><path
   d="m 405.94269,531.20957 h 3 v 17.14 h -3 z"
   fill="#ffffff"
   id="path670" /><path
   d="m 427.56269,548.34957 h -1.92 l -0.46,-2 a 7.15,7.15 0 0 1 -2.4,1.9 6.83,6.83 0 0 1 -2.76,0.53 8.11,8.11 0 0 1 -3.44,-0.71 7.45,7.45 0 0 1 -2.58,-1.94 8.67,8.67 0 0 1 -1.62,-2.85 11,11 0 0 1 0,-6.94 8.78,8.78 0 0 1 1.62,-2.85 7.6,7.6 0 0 1 2.58,-1.95 8,8 0 0 1 3.44,-0.72 9.3,9.3 0 0 1 2.66,0.38 6.89,6.89 0 0 1 2.24,1.1 6.1,6.1 0 0 1 1.63,1.83 6.49,6.49 0 0 1 0.82,2.55 h -2.93 a 3.73,3.73 0 0 0 -1.51,-2.55 4.42,4.42 0 0 0 -1.35,-0.64 5.3,5.3 0 0 0 -1.56,-0.22 4.87,4.87 0 0 0 -2.36,0.55 4.7,4.7 0 0 0 -1.62,1.48 6.64,6.64 0 0 0 -0.92,2.1 9.75,9.75 0 0 0 0,4.8 6.64,6.64 0 0 0 0.92,2.1 4.7,4.7 0 0 0 1.62,1.48 4.87,4.87 0 0 0 2.36,0.55 5.84,5.84 0 0 0 2,-0.3 3.91,3.91 0 0 0 2.43,-2.44 6.11,6.11 0 0 0 0.33,-2 h -4.56 v -2.28 h 7.3 z"
   fill="#ffffff"
   id="path672" /><path
   d="m 430.82269,531.20957 h 3 v 17.14 h -3 z"
   fill="#ffffff"
   id="path674" /><path
   d="m 437.39269,531.20957 h 3.16 l 7.84,12.63 v 0 -12.63 h 2.85 v 17.14 h -3.17 l -7.8,-12.6 h -0.07 v 12.6 h -2.81 z"
   fill="#ffffff"
   id="path676" /><path
   d="m 459.39269,531.20957 h 3.19 l 6.6,17.14 h -3.22 l -1.57,-4.54 h -6.84 l -1.61,4.54 h -3.1 z m -1,10.32 h 5.23 l -2.6,-7.32 h -0.08 z"
   fill="#ffffff"
   id="path678" /><path
   d="m 470.83269,531.20957 h 3 v 14.55 h 8.71 v 2.59 h -11.71 z"
   fill="#ffffff"
   id="path680" /><path
   id="path680-0"
   fill="#ffffff"
   d="m 494.83269,531.20957 h 3 v 14.55 h 8.71 v 2.59 h -11.71 z" /><path
   id="path668-6"
   fill="#ffffff"
   d="m 508.42388,531.1297 h 8.18 a 6.32,6.32 0 0 1 4.25,1.23 4.23,4.23 0 0 1 1.42,3.4 5,5 0 0 1 -0.36,2 4.42,4.42 0 0 1 -0.84,1.3 3.4,3.4 0 0 1 -0.95,0.71 c -0.31,0.14 -0.54,0.23 -0.68,0.28 v 0.08 a 2.88,2.88 0 0 1 0.82,0.24 2.38,2.38 0 0 1 0.83,0.61 3.38,3.38 0 0 1 0.64,1.09 4.82,4.82 0 0 1 0.25,1.69 15.32,15.32 0 0 0 0.23,2.74 3.59,3.59 0 0 0 0.71,1.77 h -3.22 a 2.88,2.88 0 0 1 -0.4,-1.23 c 0,-0.44 -0.06,-0.88 -0.06,-1.29 a 12,12 0 0 0 -0.14,-2 3.57,3.57 0 0 0 -0.53,-1.42 2.18,2.18 0 0 0 -1,-0.82 4.53,4.53 0 0 0 -1.69,-0.27 h -4.42 v 7.06 h -3 z m 3,7.8 h 4.92 a 3.17,3.17 0 0 0 2.19,-0.68 2.68,2.68 0 0 0 0.74,-2.05 3.21,3.21 0 0 0 -0.24,-1.34 1.94,1.94 0 0 0 -0.66,-0.8 2.39,2.39 0 0 0 -1,-0.38 5.83,5.83 0 0 0 -1.12,-0.1 h -4.87 z" /><path
   id="path676-4"
   fill="#ffffff"
   d="m 524.81893,531.1356 h 3.16 l 7.84,12.63 v 0 -12.63 h 2.85 v 17.14 h -3.17 l -7.8,-12.6 h -0.07 v 12.6 h -2.81 z" /><path
   id="path678-3"
   fill="#ffffff"
   d="m 546.81893,531.1356 h 3.19 l 6.6,17.14 h -3.22 l -1.57,-4.54 h -6.84 l -1.61,4.54 h -3.1 z m -1,10.32 h 5.23 l -2.6,-7.32 h -0.08 z" /><path
   sodipodi:nodetypes="ccccccc"
   d="m 494.83269,531.31844 3,-0.10887 v 0 h 8.71 v 2.59 h -11.71 z"
   fill="#ffffff"
   id="path680-0-8" /><path
   id="path680-0-8-4"
   fill="#ffffff"
   d="m 494.8569,538.3044 3,-0.10887 v 0 h 8.71 v 2.59 h -11.71 z"
   sodipodi:nodetypes="ccccccc" /><line
   id="line470-0"
   stroke-width="0.366481"
   stroke-linejoin="round"
   stroke-linecap="round"
   stroke="#ffffff"
   fill="none"
   y2="14.572028"
   x2="696.12836"
   y1="14.572028"
   x1="14.165846" /><path
   id="path582-9"
   fill="#ffffff"
   d="m 7.7549394,16.661599 h -3.82 a 2.25,2.25 0 0 1 0.33,-1.22 3.21,3.21 0 0 1 0.9,-0.9 l 0.57,-0.39 a 4.44,4.44 0 0 0 0.54,-0.4 2.23,2.23 0 0 0 0.41,-0.47 1.13,1.13 0 0 0 0.17,-0.58 1.35,1.35 0 0 0 0,-0.33 0.83,0.83 0 0 0 -0.14,-0.32 0.7,0.7 0 0 0 -0.29,-0.24 1,1 0 0 0 -0.48,-0.11 0.88,0.88 0 0 0 -0.45,0.11 0.83,0.83 0 0 0 -0.29,0.3 1.75,1.75 0 0 0 -0.16,0.44 4.8,4.8 0 0 0 -0.06,0.56 h -0.91 a 2.93,2.93 0 0 1 0.12,-0.86 1.92,1.92 0 0 1 0.38,-0.69 1.69,1.69 0 0 1 0.6,-0.45 2,2 0 0 1 0.83,-0.17 2,2 0 0 1 0.86,0.17 1.6,1.6 0 0 1 0.55,0.43 1.56,1.56 0 0 1 0.3,0.55 2.05,2.05 0 0 1 0.09,0.58 1.74,1.74 0 0 1 -0.1,0.61 2.46,2.46 0 0 1 -0.28,0.5 3.16,3.16 0 0 1 -0.4,0.42 l -0.47,0.36 -0.48,0.32 c -0.16,0.1 -0.31,0.2 -0.44,0.3 a 2.27,2.27 0 0 0 -0.36,0.32 0.91,0.91 0 0 0 -0.21,0.35 h 2.73 z" /><path
   id="path584-3"
   fill="#ffffff"
   d="m 8.4949394,11.941599 a 3.43,3.43 0 0 0 0.56,0 2.17,2.17 0 0 0 0.49,-0.16 1.37,1.37 0 0 0 0.38,-0.29 0.9,0.9 0 0 0 0.1999996,-0.43 h 0.75 v 5.6 H 9.8749394 v -4 h -1.38 z" /><circle
   r="21.873669"
   cy="297.93576"
   cx="312.79166"
   id="path2013"
   style="fill:#4d4d4d;fill-rule:evenodd;fill-opacity:0.63709676" /></svg>
